<mxfile host="app.diagrams.net" modified="2023-03-23T09:50:30.656Z" agent="5.0 (Windows NT 10.0; Win64; x64) AppleWebKit/537.36 (KHTML, like Gecko) Chrome/111.0.0.0 Safari/537.36" etag="zC3YsSccrZDKDN6G9YFN" version="21.0.10" type="github">
  <diagram id="C5RBs43oDa-KdzZeNtuy" name="Page-1">
    <mxGraphModel dx="2514" dy="1988" grid="1" gridSize="10" guides="1" tooltips="1" connect="1" arrows="1" fold="1" page="1" pageScale="1" pageWidth="827" pageHeight="1169" math="0" shadow="0">
      <root>
        <mxCell id="WIyWlLk6GJQsqaUBKTNV-0" />
        <mxCell id="WIyWlLk6GJQsqaUBKTNV-1" parent="WIyWlLk6GJQsqaUBKTNV-0" />
        <mxCell id="HXH-O_uExGK2S-_WwO7n-754" value="" style="rounded=0;whiteSpace=wrap;html=1;" vertex="1" parent="WIyWlLk6GJQsqaUBKTNV-1">
          <mxGeometry x="-440" y="920" width="1560" height="780" as="geometry" />
        </mxCell>
        <mxCell id="HXH-O_uExGK2S-_WwO7n-753" value="" style="rounded=0;whiteSpace=wrap;html=1;" vertex="1" parent="WIyWlLk6GJQsqaUBKTNV-1">
          <mxGeometry x="-440" y="-310" width="1560" height="1210" as="geometry" />
        </mxCell>
        <mxCell id="HXH-O_uExGK2S-_WwO7n-95" value="" style="strokeWidth=2;html=1;shape=mxgraph.flowchart.database;whiteSpace=wrap;fontSize=12;" vertex="1" parent="WIyWlLk6GJQsqaUBKTNV-1">
          <mxGeometry x="-413" y="-130" width="330" height="690" as="geometry" />
        </mxCell>
        <mxCell id="HXH-O_uExGK2S-_WwO7n-143" style="edgeStyle=orthogonalEdgeStyle;rounded=0;orthogonalLoop=1;jettySize=auto;html=1;fontSize=11;startArrow=classic;startFill=1;strokeWidth=3;" edge="1" parent="WIyWlLk6GJQsqaUBKTNV-1" source="HXH-O_uExGK2S-_WwO7n-54" target="HXH-O_uExGK2S-_WwO7n-97">
          <mxGeometry relative="1" as="geometry" />
        </mxCell>
        <mxCell id="HXH-O_uExGK2S-_WwO7n-54" value="USERS" style="shape=table;startSize=30;container=1;collapsible=1;childLayout=tableLayout;fixedRows=1;rowLines=0;fontStyle=1;align=center;resizeLast=1;html=1;swimlaneFillColor=default;fontSize=12;" vertex="1" parent="WIyWlLk6GJQsqaUBKTNV-1">
          <mxGeometry x="-313" y="-90" width="180" height="330" as="geometry" />
        </mxCell>
        <mxCell id="HXH-O_uExGK2S-_WwO7n-55" value="" style="shape=tableRow;horizontal=0;startSize=0;swimlaneHead=0;swimlaneBody=0;fillColor=none;collapsible=0;dropTarget=0;points=[[0,0.5],[1,0.5]];portConstraint=eastwest;top=0;left=0;right=0;bottom=1;swimlaneLine=1;fontSize=12;" vertex="1" parent="HXH-O_uExGK2S-_WwO7n-54">
          <mxGeometry y="30" width="180" height="30" as="geometry" />
        </mxCell>
        <mxCell id="HXH-O_uExGK2S-_WwO7n-56" value="PK" style="shape=partialRectangle;connectable=0;fillColor=none;top=0;left=0;bottom=0;right=0;fontStyle=1;overflow=hidden;whiteSpace=wrap;html=1;fontSize=12;" vertex="1" parent="HXH-O_uExGK2S-_WwO7n-55">
          <mxGeometry width="30" height="30" as="geometry">
            <mxRectangle width="30" height="30" as="alternateBounds" />
          </mxGeometry>
        </mxCell>
        <mxCell id="HXH-O_uExGK2S-_WwO7n-57" value="ID" style="shape=partialRectangle;connectable=0;fillColor=none;top=0;left=0;bottom=0;right=0;align=left;spacingLeft=6;fontStyle=5;overflow=hidden;whiteSpace=wrap;html=1;strokeColor=default;fontSize=12;" vertex="1" parent="HXH-O_uExGK2S-_WwO7n-55">
          <mxGeometry x="30" width="150" height="30" as="geometry">
            <mxRectangle width="150" height="30" as="alternateBounds" />
          </mxGeometry>
        </mxCell>
        <mxCell id="HXH-O_uExGK2S-_WwO7n-58" value="" style="shape=tableRow;horizontal=0;startSize=0;swimlaneHead=0;swimlaneBody=0;fillColor=none;collapsible=0;dropTarget=0;points=[[0,0.5],[1,0.5]];portConstraint=eastwest;top=0;left=0;right=0;bottom=0;swimlaneLine=1;fontSize=12;" vertex="1" parent="HXH-O_uExGK2S-_WwO7n-54">
          <mxGeometry y="60" width="180" height="30" as="geometry" />
        </mxCell>
        <mxCell id="HXH-O_uExGK2S-_WwO7n-59" value="" style="shape=partialRectangle;connectable=0;fillColor=none;top=0;left=0;bottom=0;right=0;editable=1;overflow=hidden;whiteSpace=wrap;html=1;fontSize=12;" vertex="1" parent="HXH-O_uExGK2S-_WwO7n-58">
          <mxGeometry width="30" height="30" as="geometry">
            <mxRectangle width="30" height="30" as="alternateBounds" />
          </mxGeometry>
        </mxCell>
        <mxCell id="HXH-O_uExGK2S-_WwO7n-60" value="NAME" style="shape=partialRectangle;connectable=0;fillColor=none;top=0;left=0;bottom=0;right=0;align=left;spacingLeft=6;overflow=hidden;whiteSpace=wrap;html=1;fontSize=12;" vertex="1" parent="HXH-O_uExGK2S-_WwO7n-58">
          <mxGeometry x="30" width="150" height="30" as="geometry">
            <mxRectangle width="150" height="30" as="alternateBounds" />
          </mxGeometry>
        </mxCell>
        <mxCell id="HXH-O_uExGK2S-_WwO7n-61" value="" style="shape=tableRow;horizontal=0;startSize=0;swimlaneHead=0;swimlaneBody=0;fillColor=none;collapsible=0;dropTarget=0;points=[[0,0.5],[1,0.5]];portConstraint=eastwest;top=0;left=0;right=0;bottom=0;fontSize=12;" vertex="1" parent="HXH-O_uExGK2S-_WwO7n-54">
          <mxGeometry y="90" width="180" height="30" as="geometry" />
        </mxCell>
        <mxCell id="HXH-O_uExGK2S-_WwO7n-62" value="" style="shape=partialRectangle;connectable=0;fillColor=none;top=0;left=0;bottom=0;right=0;editable=1;overflow=hidden;whiteSpace=wrap;html=1;fontSize=12;" vertex="1" parent="HXH-O_uExGK2S-_WwO7n-61">
          <mxGeometry width="30" height="30" as="geometry">
            <mxRectangle width="30" height="30" as="alternateBounds" />
          </mxGeometry>
        </mxCell>
        <mxCell id="HXH-O_uExGK2S-_WwO7n-63" value="EMAIL" style="shape=partialRectangle;connectable=0;fillColor=none;top=0;left=0;bottom=0;right=0;align=left;spacingLeft=6;overflow=hidden;whiteSpace=wrap;html=1;fontSize=12;" vertex="1" parent="HXH-O_uExGK2S-_WwO7n-61">
          <mxGeometry x="30" width="150" height="30" as="geometry">
            <mxRectangle width="150" height="30" as="alternateBounds" />
          </mxGeometry>
        </mxCell>
        <mxCell id="HXH-O_uExGK2S-_WwO7n-64" value="" style="shape=tableRow;horizontal=0;startSize=0;swimlaneHead=0;swimlaneBody=0;fillColor=none;collapsible=0;dropTarget=0;points=[[0,0.5],[1,0.5]];portConstraint=eastwest;top=0;left=0;right=0;bottom=0;fontSize=12;" vertex="1" parent="HXH-O_uExGK2S-_WwO7n-54">
          <mxGeometry y="120" width="180" height="30" as="geometry" />
        </mxCell>
        <mxCell id="HXH-O_uExGK2S-_WwO7n-65" value="" style="shape=partialRectangle;connectable=0;fillColor=none;top=0;left=0;bottom=0;right=0;editable=1;overflow=hidden;whiteSpace=wrap;html=1;fontSize=12;" vertex="1" parent="HXH-O_uExGK2S-_WwO7n-64">
          <mxGeometry width="30" height="30" as="geometry">
            <mxRectangle width="30" height="30" as="alternateBounds" />
          </mxGeometry>
        </mxCell>
        <mxCell id="HXH-O_uExGK2S-_WwO7n-66" value="PASSWORD" style="shape=partialRectangle;connectable=0;fillColor=none;top=0;left=0;bottom=0;right=0;align=left;spacingLeft=6;overflow=hidden;whiteSpace=wrap;html=1;fontSize=12;" vertex="1" parent="HXH-O_uExGK2S-_WwO7n-64">
          <mxGeometry x="30" width="150" height="30" as="geometry">
            <mxRectangle width="150" height="30" as="alternateBounds" />
          </mxGeometry>
        </mxCell>
        <mxCell id="HXH-O_uExGK2S-_WwO7n-71" style="shape=tableRow;horizontal=0;startSize=0;swimlaneHead=0;swimlaneBody=0;collapsible=0;dropTarget=0;points=[[0,0.5],[1,0.5]];portConstraint=eastwest;top=0;left=0;right=0;bottom=0;align=left;spacingLeft=6;fontStyle=5;swimlaneLine=1;fillColor=none;swimlaneFillColor=#000000;strokeColor=default;fontSize=12;" vertex="1" parent="HXH-O_uExGK2S-_WwO7n-54">
          <mxGeometry y="150" width="180" height="30" as="geometry" />
        </mxCell>
        <mxCell id="HXH-O_uExGK2S-_WwO7n-72" style="shape=partialRectangle;connectable=0;fillColor=none;top=0;left=0;bottom=0;right=0;editable=1;overflow=hidden;whiteSpace=wrap;html=1;fontSize=12;" vertex="1" parent="HXH-O_uExGK2S-_WwO7n-71">
          <mxGeometry width="30" height="30" as="geometry">
            <mxRectangle width="30" height="30" as="alternateBounds" />
          </mxGeometry>
        </mxCell>
        <mxCell id="HXH-O_uExGK2S-_WwO7n-73" value="PHONES" style="shape=partialRectangle;connectable=0;fillColor=none;top=0;left=0;bottom=0;right=0;align=left;spacingLeft=6;overflow=hidden;whiteSpace=wrap;html=1;shadow=0;fontSize=12;" vertex="1" parent="HXH-O_uExGK2S-_WwO7n-71">
          <mxGeometry x="30" width="150" height="30" as="geometry">
            <mxRectangle width="150" height="30" as="alternateBounds" />
          </mxGeometry>
        </mxCell>
        <mxCell id="HXH-O_uExGK2S-_WwO7n-74" style="shape=tableRow;horizontal=0;startSize=0;swimlaneHead=0;swimlaneBody=0;fillColor=none;collapsible=0;dropTarget=0;points=[[0,0.5],[1,0.5]];portConstraint=eastwest;top=0;left=0;right=0;bottom=0;fontSize=12;" vertex="1" parent="HXH-O_uExGK2S-_WwO7n-54">
          <mxGeometry y="180" width="180" height="30" as="geometry" />
        </mxCell>
        <mxCell id="HXH-O_uExGK2S-_WwO7n-75" style="shape=partialRectangle;connectable=0;fillColor=none;top=0;left=0;bottom=0;right=0;editable=1;overflow=hidden;whiteSpace=wrap;html=1;fontSize=12;" vertex="1" parent="HXH-O_uExGK2S-_WwO7n-74">
          <mxGeometry width="30" height="30" as="geometry">
            <mxRectangle width="30" height="30" as="alternateBounds" />
          </mxGeometry>
        </mxCell>
        <mxCell id="HXH-O_uExGK2S-_WwO7n-76" value="CREATED" style="shape=partialRectangle;connectable=0;fillColor=none;top=0;left=0;bottom=0;right=0;align=left;spacingLeft=6;overflow=hidden;whiteSpace=wrap;html=1;fontSize=12;" vertex="1" parent="HXH-O_uExGK2S-_WwO7n-74">
          <mxGeometry x="30" width="150" height="30" as="geometry">
            <mxRectangle width="150" height="30" as="alternateBounds" />
          </mxGeometry>
        </mxCell>
        <mxCell id="HXH-O_uExGK2S-_WwO7n-92" style="shape=tableRow;horizontal=0;startSize=0;swimlaneHead=0;swimlaneBody=0;fillColor=none;collapsible=0;dropTarget=0;points=[[0,0.5],[1,0.5]];portConstraint=eastwest;top=0;left=0;right=0;bottom=0;fontSize=12;" vertex="1" parent="HXH-O_uExGK2S-_WwO7n-54">
          <mxGeometry y="210" width="180" height="30" as="geometry" />
        </mxCell>
        <mxCell id="HXH-O_uExGK2S-_WwO7n-93" style="shape=partialRectangle;connectable=0;fillColor=none;top=0;left=0;bottom=0;right=0;editable=1;overflow=hidden;whiteSpace=wrap;html=1;fontSize=12;" vertex="1" parent="HXH-O_uExGK2S-_WwO7n-92">
          <mxGeometry width="30" height="30" as="geometry">
            <mxRectangle width="30" height="30" as="alternateBounds" />
          </mxGeometry>
        </mxCell>
        <mxCell id="HXH-O_uExGK2S-_WwO7n-94" value="MODIFIED" style="shape=partialRectangle;connectable=0;fillColor=none;top=0;left=0;bottom=0;right=0;align=left;spacingLeft=6;overflow=hidden;whiteSpace=wrap;html=1;fontSize=12;" vertex="1" parent="HXH-O_uExGK2S-_WwO7n-92">
          <mxGeometry x="30" width="150" height="30" as="geometry">
            <mxRectangle width="150" height="30" as="alternateBounds" />
          </mxGeometry>
        </mxCell>
        <mxCell id="HXH-O_uExGK2S-_WwO7n-89" style="shape=tableRow;horizontal=0;startSize=0;swimlaneHead=0;swimlaneBody=0;fillColor=none;collapsible=0;dropTarget=0;points=[[0,0.5],[1,0.5]];portConstraint=eastwest;top=0;left=0;right=0;bottom=0;fontSize=12;" vertex="1" parent="HXH-O_uExGK2S-_WwO7n-54">
          <mxGeometry y="240" width="180" height="30" as="geometry" />
        </mxCell>
        <mxCell id="HXH-O_uExGK2S-_WwO7n-90" style="shape=partialRectangle;connectable=0;fillColor=none;top=0;left=0;bottom=0;right=0;editable=1;overflow=hidden;whiteSpace=wrap;html=1;fontSize=12;" vertex="1" parent="HXH-O_uExGK2S-_WwO7n-89">
          <mxGeometry width="30" height="30" as="geometry">
            <mxRectangle width="30" height="30" as="alternateBounds" />
          </mxGeometry>
        </mxCell>
        <mxCell id="HXH-O_uExGK2S-_WwO7n-91" value="LAST_LOGIN" style="shape=partialRectangle;connectable=0;fillColor=none;top=0;left=0;bottom=0;right=0;align=left;spacingLeft=6;overflow=hidden;whiteSpace=wrap;html=1;fontSize=12;" vertex="1" parent="HXH-O_uExGK2S-_WwO7n-89">
          <mxGeometry x="30" width="150" height="30" as="geometry">
            <mxRectangle width="150" height="30" as="alternateBounds" />
          </mxGeometry>
        </mxCell>
        <mxCell id="HXH-O_uExGK2S-_WwO7n-86" style="shape=tableRow;horizontal=0;startSize=0;swimlaneHead=0;swimlaneBody=0;fillColor=none;collapsible=0;dropTarget=0;points=[[0,0.5],[1,0.5]];portConstraint=eastwest;top=0;left=0;right=0;bottom=0;fontSize=12;" vertex="1" parent="HXH-O_uExGK2S-_WwO7n-54">
          <mxGeometry y="270" width="180" height="30" as="geometry" />
        </mxCell>
        <mxCell id="HXH-O_uExGK2S-_WwO7n-87" style="shape=partialRectangle;connectable=0;fillColor=none;top=0;left=0;bottom=0;right=0;editable=1;overflow=hidden;whiteSpace=wrap;html=1;fontSize=12;" vertex="1" parent="HXH-O_uExGK2S-_WwO7n-86">
          <mxGeometry width="30" height="30" as="geometry">
            <mxRectangle width="30" height="30" as="alternateBounds" />
          </mxGeometry>
        </mxCell>
        <mxCell id="HXH-O_uExGK2S-_WwO7n-88" value="TOKEN" style="shape=partialRectangle;connectable=0;fillColor=none;top=0;left=0;bottom=0;right=0;align=left;spacingLeft=6;overflow=hidden;whiteSpace=wrap;html=1;fontSize=12;" vertex="1" parent="HXH-O_uExGK2S-_WwO7n-86">
          <mxGeometry x="30" width="150" height="30" as="geometry">
            <mxRectangle width="150" height="30" as="alternateBounds" />
          </mxGeometry>
        </mxCell>
        <mxCell id="HXH-O_uExGK2S-_WwO7n-83" style="shape=tableRow;horizontal=0;startSize=0;swimlaneHead=0;swimlaneBody=0;fillColor=none;collapsible=0;dropTarget=0;points=[[0,0.5],[1,0.5]];portConstraint=eastwest;top=0;left=0;right=0;bottom=0;fontSize=12;" vertex="1" parent="HXH-O_uExGK2S-_WwO7n-54">
          <mxGeometry y="300" width="180" height="30" as="geometry" />
        </mxCell>
        <mxCell id="HXH-O_uExGK2S-_WwO7n-84" style="shape=partialRectangle;connectable=0;fillColor=none;top=0;left=0;bottom=0;right=0;editable=1;overflow=hidden;whiteSpace=wrap;html=1;fontSize=12;" vertex="1" parent="HXH-O_uExGK2S-_WwO7n-83">
          <mxGeometry width="30" height="30" as="geometry">
            <mxRectangle width="30" height="30" as="alternateBounds" />
          </mxGeometry>
        </mxCell>
        <mxCell id="HXH-O_uExGK2S-_WwO7n-85" value="ISACTIVE" style="shape=partialRectangle;connectable=0;fillColor=none;top=0;left=0;bottom=0;right=0;align=left;spacingLeft=6;overflow=hidden;whiteSpace=wrap;html=1;fontSize=12;" vertex="1" parent="HXH-O_uExGK2S-_WwO7n-83">
          <mxGeometry x="30" width="150" height="30" as="geometry">
            <mxRectangle width="150" height="30" as="alternateBounds" />
          </mxGeometry>
        </mxCell>
        <mxCell id="HXH-O_uExGK2S-_WwO7n-97" value="PHONES" style="shape=table;startSize=30;container=1;collapsible=1;childLayout=tableLayout;fixedRows=1;rowLines=0;fontStyle=1;align=center;resizeLast=1;html=1;swimlaneFillColor=default;fontSize=12;" vertex="1" parent="WIyWlLk6GJQsqaUBKTNV-1">
          <mxGeometry x="-313" y="340" width="180" height="180" as="geometry" />
        </mxCell>
        <mxCell id="HXH-O_uExGK2S-_WwO7n-98" value="" style="shape=tableRow;horizontal=0;startSize=0;swimlaneHead=0;swimlaneBody=0;fillColor=none;collapsible=0;dropTarget=0;points=[[0,0.5],[1,0.5]];portConstraint=eastwest;top=0;left=0;right=0;bottom=1;swimlaneLine=1;fontSize=12;" vertex="1" parent="HXH-O_uExGK2S-_WwO7n-97">
          <mxGeometry y="30" width="180" height="30" as="geometry" />
        </mxCell>
        <mxCell id="HXH-O_uExGK2S-_WwO7n-99" value="PK" style="shape=partialRectangle;connectable=0;fillColor=none;top=0;left=0;bottom=0;right=0;fontStyle=1;overflow=hidden;whiteSpace=wrap;html=1;fontSize=12;" vertex="1" parent="HXH-O_uExGK2S-_WwO7n-98">
          <mxGeometry width="30" height="30" as="geometry">
            <mxRectangle width="30" height="30" as="alternateBounds" />
          </mxGeometry>
        </mxCell>
        <mxCell id="HXH-O_uExGK2S-_WwO7n-100" value="ID" style="shape=partialRectangle;connectable=0;fillColor=none;top=0;left=0;bottom=0;right=0;align=left;spacingLeft=6;fontStyle=5;overflow=hidden;whiteSpace=wrap;html=1;strokeColor=default;fontSize=12;" vertex="1" parent="HXH-O_uExGK2S-_WwO7n-98">
          <mxGeometry x="30" width="150" height="30" as="geometry">
            <mxRectangle width="150" height="30" as="alternateBounds" />
          </mxGeometry>
        </mxCell>
        <mxCell id="HXH-O_uExGK2S-_WwO7n-128" style="shape=tableRow;horizontal=0;startSize=0;swimlaneHead=0;swimlaneBody=0;fillColor=none;collapsible=0;dropTarget=0;points=[[0,0.5],[1,0.5]];portConstraint=eastwest;top=0;left=0;right=0;bottom=1;swimlaneLine=1;fontSize=12;" vertex="1" parent="HXH-O_uExGK2S-_WwO7n-97">
          <mxGeometry y="60" width="180" height="30" as="geometry" />
        </mxCell>
        <mxCell id="HXH-O_uExGK2S-_WwO7n-129" value="FK" style="shape=partialRectangle;connectable=0;fillColor=none;top=0;left=0;bottom=0;right=0;fontStyle=1;overflow=hidden;whiteSpace=wrap;html=1;fontSize=12;" vertex="1" parent="HXH-O_uExGK2S-_WwO7n-128">
          <mxGeometry width="30" height="30" as="geometry">
            <mxRectangle width="30" height="30" as="alternateBounds" />
          </mxGeometry>
        </mxCell>
        <mxCell id="HXH-O_uExGK2S-_WwO7n-130" value="USERID" style="shape=partialRectangle;connectable=0;fillColor=none;top=0;left=0;bottom=0;right=0;align=left;spacingLeft=6;fontStyle=5;overflow=hidden;whiteSpace=wrap;html=1;strokeColor=default;fontSize=12;" vertex="1" parent="HXH-O_uExGK2S-_WwO7n-128">
          <mxGeometry x="30" width="150" height="30" as="geometry">
            <mxRectangle width="150" height="30" as="alternateBounds" />
          </mxGeometry>
        </mxCell>
        <mxCell id="HXH-O_uExGK2S-_WwO7n-101" value="" style="shape=tableRow;horizontal=0;startSize=0;swimlaneHead=0;swimlaneBody=0;fillColor=none;collapsible=0;dropTarget=0;points=[[0,0.5],[1,0.5]];portConstraint=eastwest;top=0;left=0;right=0;bottom=0;swimlaneLine=1;fontSize=12;" vertex="1" parent="HXH-O_uExGK2S-_WwO7n-97">
          <mxGeometry y="90" width="180" height="30" as="geometry" />
        </mxCell>
        <mxCell id="HXH-O_uExGK2S-_WwO7n-102" value="" style="shape=partialRectangle;connectable=0;fillColor=none;top=0;left=0;bottom=0;right=0;editable=1;overflow=hidden;whiteSpace=wrap;html=1;fontSize=12;" vertex="1" parent="HXH-O_uExGK2S-_WwO7n-101">
          <mxGeometry width="30" height="30" as="geometry">
            <mxRectangle width="30" height="30" as="alternateBounds" />
          </mxGeometry>
        </mxCell>
        <mxCell id="HXH-O_uExGK2S-_WwO7n-103" value="CITYCODE" style="shape=partialRectangle;connectable=0;fillColor=none;top=0;left=0;bottom=0;right=0;align=left;spacingLeft=6;overflow=hidden;whiteSpace=wrap;html=1;fontSize=12;" vertex="1" parent="HXH-O_uExGK2S-_WwO7n-101">
          <mxGeometry x="30" width="150" height="30" as="geometry">
            <mxRectangle width="150" height="30" as="alternateBounds" />
          </mxGeometry>
        </mxCell>
        <mxCell id="HXH-O_uExGK2S-_WwO7n-104" value="" style="shape=tableRow;horizontal=0;startSize=0;swimlaneHead=0;swimlaneBody=0;fillColor=none;collapsible=0;dropTarget=0;points=[[0,0.5],[1,0.5]];portConstraint=eastwest;top=0;left=0;right=0;bottom=0;fontSize=12;" vertex="1" parent="HXH-O_uExGK2S-_WwO7n-97">
          <mxGeometry y="120" width="180" height="30" as="geometry" />
        </mxCell>
        <mxCell id="HXH-O_uExGK2S-_WwO7n-105" value="" style="shape=partialRectangle;connectable=0;fillColor=none;top=0;left=0;bottom=0;right=0;editable=1;overflow=hidden;whiteSpace=wrap;html=1;fontSize=12;" vertex="1" parent="HXH-O_uExGK2S-_WwO7n-104">
          <mxGeometry width="30" height="30" as="geometry">
            <mxRectangle width="30" height="30" as="alternateBounds" />
          </mxGeometry>
        </mxCell>
        <mxCell id="HXH-O_uExGK2S-_WwO7n-106" value="COUNTRYCODE" style="shape=partialRectangle;connectable=0;fillColor=none;top=0;left=0;bottom=0;right=0;align=left;spacingLeft=6;overflow=hidden;whiteSpace=wrap;html=1;fontSize=12;" vertex="1" parent="HXH-O_uExGK2S-_WwO7n-104">
          <mxGeometry x="30" width="150" height="30" as="geometry">
            <mxRectangle width="150" height="30" as="alternateBounds" />
          </mxGeometry>
        </mxCell>
        <mxCell id="HXH-O_uExGK2S-_WwO7n-107" value="" style="shape=tableRow;horizontal=0;startSize=0;swimlaneHead=0;swimlaneBody=0;fillColor=none;collapsible=0;dropTarget=0;points=[[0,0.5],[1,0.5]];portConstraint=eastwest;top=0;left=0;right=0;bottom=0;fontSize=12;" vertex="1" parent="HXH-O_uExGK2S-_WwO7n-97">
          <mxGeometry y="150" width="180" height="30" as="geometry" />
        </mxCell>
        <mxCell id="HXH-O_uExGK2S-_WwO7n-108" value="" style="shape=partialRectangle;connectable=0;fillColor=none;top=0;left=0;bottom=0;right=0;editable=1;overflow=hidden;whiteSpace=wrap;html=1;fontSize=12;" vertex="1" parent="HXH-O_uExGK2S-_WwO7n-107">
          <mxGeometry width="30" height="30" as="geometry">
            <mxRectangle width="30" height="30" as="alternateBounds" />
          </mxGeometry>
        </mxCell>
        <mxCell id="HXH-O_uExGK2S-_WwO7n-109" value="NUMBER" style="shape=partialRectangle;connectable=0;fillColor=none;top=0;left=0;bottom=0;right=0;align=left;spacingLeft=6;overflow=hidden;whiteSpace=wrap;html=1;fontSize=12;" vertex="1" parent="HXH-O_uExGK2S-_WwO7n-107">
          <mxGeometry x="30" width="150" height="30" as="geometry">
            <mxRectangle width="150" height="30" as="alternateBounds" />
          </mxGeometry>
        </mxCell>
        <mxCell id="HXH-O_uExGK2S-_WwO7n-132" style="edgeStyle=orthogonalEdgeStyle;rounded=0;orthogonalLoop=1;jettySize=auto;html=1;entryX=0;entryY=0.5;entryDx=0;entryDy=0;startArrow=classic;startFill=1;strokeWidth=3;fontSize=12;" edge="1" parent="WIyWlLk6GJQsqaUBKTNV-1" source="HXH-O_uExGK2S-_WwO7n-128" target="HXH-O_uExGK2S-_WwO7n-55">
          <mxGeometry relative="1" as="geometry">
            <Array as="points">
              <mxPoint x="-393" y="415" />
              <mxPoint x="-393" y="-45" />
            </Array>
          </mxGeometry>
        </mxCell>
        <mxCell id="HXH-O_uExGK2S-_WwO7n-136" style="edgeStyle=orthogonalEdgeStyle;rounded=0;orthogonalLoop=1;jettySize=auto;html=1;entryX=0.5;entryY=0;entryDx=0;entryDy=0;" edge="1" parent="WIyWlLk6GJQsqaUBKTNV-1" source="HXH-O_uExGK2S-_WwO7n-133" target="HXH-O_uExGK2S-_WwO7n-135">
          <mxGeometry relative="1" as="geometry" />
        </mxCell>
        <mxCell id="HXH-O_uExGK2S-_WwO7n-133" value="&lt;b&gt;USER API RESTFUL&lt;br style=&quot;font-size: 12px;&quot;&gt;&lt;br style=&quot;font-size: 12px;&quot;&gt;START&lt;/b&gt;" style="strokeWidth=2;html=1;shape=mxgraph.flowchart.start_2;whiteSpace=wrap;fontSize=12;" vertex="1" parent="WIyWlLk6GJQsqaUBKTNV-1">
          <mxGeometry x="27.5" y="-180" width="150" height="90" as="geometry" />
        </mxCell>
        <mxCell id="HXH-O_uExGK2S-_WwO7n-137" style="edgeStyle=orthogonalEdgeStyle;rounded=0;orthogonalLoop=1;jettySize=auto;html=1;" edge="1" parent="WIyWlLk6GJQsqaUBKTNV-1" source="HXH-O_uExGK2S-_WwO7n-135" target="HXH-O_uExGK2S-_WwO7n-138">
          <mxGeometry relative="1" as="geometry">
            <mxPoint x="95" y="170" as="targetPoint" />
          </mxGeometry>
        </mxCell>
        <mxCell id="HXH-O_uExGK2S-_WwO7n-135" value="Inicializacion de Spring boot" style="rounded=1;whiteSpace=wrap;html=1;absoluteArcSize=1;arcSize=14;strokeWidth=2;" vertex="1" parent="WIyWlLk6GJQsqaUBKTNV-1">
          <mxGeometry x="52.5" y="-70" width="100" height="60" as="geometry" />
        </mxCell>
        <mxCell id="HXH-O_uExGK2S-_WwO7n-160" style="edgeStyle=orthogonalEdgeStyle;rounded=0;orthogonalLoop=1;jettySize=auto;html=1;entryX=0.5;entryY=0;entryDx=0;entryDy=0;" edge="1" parent="WIyWlLk6GJQsqaUBKTNV-1" source="HXH-O_uExGK2S-_WwO7n-138" target="HXH-O_uExGK2S-_WwO7n-147">
          <mxGeometry relative="1" as="geometry" />
        </mxCell>
        <mxCell id="HXH-O_uExGK2S-_WwO7n-138" value="H2&amp;nbsp;Hibernate Inicializacion&lt;br&gt;" style="rounded=1;whiteSpace=wrap;html=1;absoluteArcSize=1;arcSize=14;strokeWidth=2;" vertex="1" parent="WIyWlLk6GJQsqaUBKTNV-1">
          <mxGeometry x="55" y="10" width="95" height="100" as="geometry" />
        </mxCell>
        <mxCell id="HXH-O_uExGK2S-_WwO7n-155" value="" style="edgeStyle=orthogonalEdgeStyle;rounded=0;orthogonalLoop=1;jettySize=auto;html=1;startArrow=classic;startFill=1;" edge="1" parent="WIyWlLk6GJQsqaUBKTNV-1" source="HXH-O_uExGK2S-_WwO7n-147" target="HXH-O_uExGK2S-_WwO7n-154">
          <mxGeometry relative="1" as="geometry" />
        </mxCell>
        <mxCell id="HXH-O_uExGK2S-_WwO7n-161" style="edgeStyle=orthogonalEdgeStyle;rounded=0;orthogonalLoop=1;jettySize=auto;html=1;startArrow=classic;startFill=1;entryX=1;entryY=0.435;entryDx=0;entryDy=0;entryPerimeter=0;" edge="1" parent="WIyWlLk6GJQsqaUBKTNV-1" source="HXH-O_uExGK2S-_WwO7n-147" target="HXH-O_uExGK2S-_WwO7n-95">
          <mxGeometry relative="1" as="geometry">
            <mxPoint x="-80" y="169" as="targetPoint" />
          </mxGeometry>
        </mxCell>
        <mxCell id="HXH-O_uExGK2S-_WwO7n-267" style="edgeStyle=orthogonalEdgeStyle;rounded=0;orthogonalLoop=1;jettySize=auto;html=1;" edge="1" parent="WIyWlLk6GJQsqaUBKTNV-1" source="HXH-O_uExGK2S-_WwO7n-147">
          <mxGeometry relative="1" as="geometry">
            <mxPoint x="240" y="170" as="targetPoint" />
            <Array as="points">
              <mxPoint x="240" y="170" />
            </Array>
          </mxGeometry>
        </mxCell>
        <mxCell id="HXH-O_uExGK2S-_WwO7n-147" value="Modelos" style="whiteSpace=wrap;html=1;rounded=1;arcSize=14;strokeWidth=2;" vertex="1" parent="WIyWlLk6GJQsqaUBKTNV-1">
          <mxGeometry x="42.5" y="140" width="120" height="60" as="geometry" />
        </mxCell>
        <mxCell id="HXH-O_uExGK2S-_WwO7n-162" value="ENTIDAD JPA" style="edgeStyle=orthogonalEdgeStyle;rounded=0;orthogonalLoop=1;jettySize=auto;html=1;entryX=1.002;entryY=0.594;entryDx=0;entryDy=0;entryPerimeter=0;startArrow=none;startFill=0;" edge="1" parent="WIyWlLk6GJQsqaUBKTNV-1" source="HXH-O_uExGK2S-_WwO7n-154" target="HXH-O_uExGK2S-_WwO7n-95">
          <mxGeometry x="-0.2297" relative="1" as="geometry">
            <mxPoint as="offset" />
          </mxGeometry>
        </mxCell>
        <mxCell id="HXH-O_uExGK2S-_WwO7n-273" style="edgeStyle=orthogonalEdgeStyle;rounded=0;orthogonalLoop=1;jettySize=auto;html=1;" edge="1" parent="WIyWlLk6GJQsqaUBKTNV-1" source="HXH-O_uExGK2S-_WwO7n-154">
          <mxGeometry relative="1" as="geometry">
            <mxPoint x="238" y="280" as="targetPoint" />
            <Array as="points">
              <mxPoint x="238" y="280" />
            </Array>
          </mxGeometry>
        </mxCell>
        <mxCell id="HXH-O_uExGK2S-_WwO7n-285" style="edgeStyle=orthogonalEdgeStyle;rounded=0;orthogonalLoop=1;jettySize=auto;html=1;" edge="1" parent="WIyWlLk6GJQsqaUBKTNV-1" source="HXH-O_uExGK2S-_WwO7n-154" target="HXH-O_uExGK2S-_WwO7n-284">
          <mxGeometry relative="1" as="geometry" />
        </mxCell>
        <mxCell id="HXH-O_uExGK2S-_WwO7n-154" value="Capa de Servicios" style="whiteSpace=wrap;html=1;rounded=1;arcSize=14;strokeWidth=2;" vertex="1" parent="WIyWlLk6GJQsqaUBKTNV-1">
          <mxGeometry x="42.5" y="250" width="120" height="60" as="geometry" />
        </mxCell>
        <mxCell id="HXH-O_uExGK2S-_WwO7n-165" value="Repostorios JPA&lt;br&gt;clases que proveen&lt;br&gt;operaciones CRUD" style="whiteSpace=wrap;html=1;rounded=1;arcSize=14;strokeWidth=2;" vertex="1" parent="WIyWlLk6GJQsqaUBKTNV-1">
          <mxGeometry x="440" y="472" width="120" height="60" as="geometry" />
        </mxCell>
        <mxCell id="HXH-O_uExGK2S-_WwO7n-172" value="" style="edgeStyle=orthogonalEdgeStyle;rounded=0;orthogonalLoop=1;jettySize=auto;html=1;" edge="1" parent="WIyWlLk6GJQsqaUBKTNV-1" source="HXH-O_uExGK2S-_WwO7n-169" target="HXH-O_uExGK2S-_WwO7n-171">
          <mxGeometry relative="1" as="geometry" />
        </mxCell>
        <mxCell id="HXH-O_uExGK2S-_WwO7n-173" value="HTTP Request" style="edgeLabel;html=1;align=center;verticalAlign=middle;resizable=0;points=[];" vertex="1" connectable="0" parent="HXH-O_uExGK2S-_WwO7n-172">
          <mxGeometry x="-0.2857" relative="1" as="geometry">
            <mxPoint as="offset" />
          </mxGeometry>
        </mxCell>
        <mxCell id="HXH-O_uExGK2S-_WwO7n-198" style="edgeStyle=orthogonalEdgeStyle;rounded=0;orthogonalLoop=1;jettySize=auto;html=1;entryX=0;entryY=0.5;entryDx=0;entryDy=0;" edge="1" parent="WIyWlLk6GJQsqaUBKTNV-1" source="HXH-O_uExGK2S-_WwO7n-169" target="HXH-O_uExGK2S-_WwO7n-201">
          <mxGeometry relative="1" as="geometry">
            <mxPoint x="300" y="400" as="targetPoint" />
            <Array as="points">
              <mxPoint x="200" y="601" />
              <mxPoint x="200" y="601" />
            </Array>
          </mxGeometry>
        </mxCell>
        <mxCell id="HXH-O_uExGK2S-_WwO7n-169" value="Controller" style="whiteSpace=wrap;html=1;rounded=1;arcSize=14;strokeWidth=2;" vertex="1" parent="WIyWlLk6GJQsqaUBKTNV-1">
          <mxGeometry x="42.5" y="590" width="120" height="60" as="geometry" />
        </mxCell>
        <mxCell id="HXH-O_uExGK2S-_WwO7n-177" value="" style="edgeStyle=orthogonalEdgeStyle;rounded=0;orthogonalLoop=1;jettySize=auto;html=1;" edge="1" parent="WIyWlLk6GJQsqaUBKTNV-1" source="HXH-O_uExGK2S-_WwO7n-171" target="HXH-O_uExGK2S-_WwO7n-176">
          <mxGeometry relative="1" as="geometry" />
        </mxCell>
        <mxCell id="HXH-O_uExGK2S-_WwO7n-171" value="Cliente" style="whiteSpace=wrap;html=1;rounded=1;arcSize=14;strokeWidth=2;" vertex="1" parent="WIyWlLk6GJQsqaUBKTNV-1">
          <mxGeometry x="42.5" y="700" width="120" height="60" as="geometry" />
        </mxCell>
        <mxCell id="HXH-O_uExGK2S-_WwO7n-176" value="END" style="ellipse;whiteSpace=wrap;html=1;rounded=1;arcSize=14;strokeWidth=2;" vertex="1" parent="WIyWlLk6GJQsqaUBKTNV-1">
          <mxGeometry x="62.5" y="790" width="80" height="60" as="geometry" />
        </mxCell>
        <mxCell id="HXH-O_uExGK2S-_WwO7n-186" value="Servicios" style="swimlane;fontStyle=0;childLayout=stackLayout;horizontal=1;startSize=26;horizontalStack=0;resizeParent=1;resizeParentMax=0;resizeLast=0;collapsible=1;marginBottom=0;align=center;fontSize=14;" vertex="1" parent="WIyWlLk6GJQsqaUBKTNV-1">
          <mxGeometry x="240" y="254" width="110" height="56" as="geometry" />
        </mxCell>
        <mxCell id="HXH-O_uExGK2S-_WwO7n-187" value="UserService" style="text;strokeColor=none;fillColor=none;spacingLeft=4;spacingRight=4;overflow=hidden;rotatable=0;points=[[0,0.5],[1,0.5]];portConstraint=eastwest;fontSize=12;whiteSpace=wrap;html=1;" vertex="1" parent="HXH-O_uExGK2S-_WwO7n-186">
          <mxGeometry y="26" width="110" height="30" as="geometry" />
        </mxCell>
        <mxCell id="HXH-O_uExGK2S-_WwO7n-194" value="Domains" style="swimlane;fontStyle=0;childLayout=stackLayout;horizontal=1;startSize=26;horizontalStack=0;resizeParent=1;resizeParentMax=0;resizeLast=0;collapsible=1;marginBottom=0;align=center;fontSize=14;" vertex="1" parent="WIyWlLk6GJQsqaUBKTNV-1">
          <mxGeometry x="240" y="115" width="110" height="116" as="geometry" />
        </mxCell>
        <mxCell id="HXH-O_uExGK2S-_WwO7n-195" value="dto" style="text;strokeColor=none;fillColor=none;spacingLeft=4;spacingRight=4;overflow=hidden;rotatable=0;points=[[0,0.5],[1,0.5]];portConstraint=eastwest;fontSize=12;whiteSpace=wrap;html=1;" vertex="1" parent="HXH-O_uExGK2S-_WwO7n-194">
          <mxGeometry y="26" width="110" height="30" as="geometry" />
        </mxCell>
        <mxCell id="HXH-O_uExGK2S-_WwO7n-196" value="entity" style="text;strokeColor=none;fillColor=none;spacingLeft=4;spacingRight=4;overflow=hidden;rotatable=0;points=[[0,0.5],[1,0.5]];portConstraint=eastwest;fontSize=12;whiteSpace=wrap;html=1;" vertex="1" parent="HXH-O_uExGK2S-_WwO7n-194">
          <mxGeometry y="56" width="110" height="30" as="geometry" />
        </mxCell>
        <mxCell id="HXH-O_uExGK2S-_WwO7n-197" value="model" style="text;strokeColor=none;fillColor=none;spacingLeft=4;spacingRight=4;overflow=hidden;rotatable=0;points=[[0,0.5],[1,0.5]];portConstraint=eastwest;fontSize=12;whiteSpace=wrap;html=1;" vertex="1" parent="HXH-O_uExGK2S-_WwO7n-194">
          <mxGeometry y="86" width="110" height="30" as="geometry" />
        </mxCell>
        <mxCell id="HXH-O_uExGK2S-_WwO7n-199" value="Controller" style="swimlane;fontStyle=0;childLayout=stackLayout;horizontal=1;startSize=26;horizontalStack=0;resizeParent=1;resizeParentMax=0;resizeLast=0;collapsible=1;marginBottom=0;align=center;fontSize=14;" vertex="1" parent="WIyWlLk6GJQsqaUBKTNV-1">
          <mxGeometry x="240" y="550" width="110" height="326" as="geometry" />
        </mxCell>
        <mxCell id="HXH-O_uExGK2S-_WwO7n-200" value="create" style="text;strokeColor=none;fillColor=none;spacingLeft=4;spacingRight=4;overflow=hidden;rotatable=0;points=[[0,0.5],[1,0.5]];portConstraint=eastwest;fontSize=12;whiteSpace=wrap;html=1;" vertex="1" parent="HXH-O_uExGK2S-_WwO7n-199">
          <mxGeometry y="26" width="110" height="30" as="geometry" />
        </mxCell>
        <mxCell id="HXH-O_uExGK2S-_WwO7n-201" value="getByMail" style="text;strokeColor=none;fillColor=none;spacingLeft=4;spacingRight=4;overflow=hidden;rotatable=0;points=[[0,0.5],[1,0.5]];portConstraint=eastwest;fontSize=12;whiteSpace=wrap;html=1;" vertex="1" parent="HXH-O_uExGK2S-_WwO7n-199">
          <mxGeometry y="56" width="110" height="30" as="geometry" />
        </mxCell>
        <mxCell id="HXH-O_uExGK2S-_WwO7n-202" value="getById" style="text;strokeColor=none;fillColor=none;spacingLeft=4;spacingRight=4;overflow=hidden;rotatable=0;points=[[0,0.5],[1,0.5]];portConstraint=eastwest;fontSize=12;whiteSpace=wrap;html=1;" vertex="1" parent="HXH-O_uExGK2S-_WwO7n-199">
          <mxGeometry y="86" width="110" height="30" as="geometry" />
        </mxCell>
        <mxCell id="HXH-O_uExGK2S-_WwO7n-210" value="getAll" style="text;strokeColor=none;fillColor=none;spacingLeft=4;spacingRight=4;overflow=hidden;rotatable=0;points=[[0,0.5],[1,0.5]];portConstraint=eastwest;fontSize=12;whiteSpace=wrap;html=1;" vertex="1" parent="HXH-O_uExGK2S-_WwO7n-199">
          <mxGeometry y="116" width="110" height="30" as="geometry" />
        </mxCell>
        <mxCell id="HXH-O_uExGK2S-_WwO7n-209" value="edit" style="text;strokeColor=none;fillColor=none;spacingLeft=4;spacingRight=4;overflow=hidden;rotatable=0;points=[[0,0.5],[1,0.5]];portConstraint=eastwest;fontSize=12;whiteSpace=wrap;html=1;" vertex="1" parent="HXH-O_uExGK2S-_WwO7n-199">
          <mxGeometry y="146" width="110" height="30" as="geometry" />
        </mxCell>
        <mxCell id="HXH-O_uExGK2S-_WwO7n-208" value="deleteByMail" style="text;strokeColor=none;fillColor=none;spacingLeft=4;spacingRight=4;overflow=hidden;rotatable=0;points=[[0,0.5],[1,0.5]];portConstraint=eastwest;fontSize=12;whiteSpace=wrap;html=1;" vertex="1" parent="HXH-O_uExGK2S-_WwO7n-199">
          <mxGeometry y="176" width="110" height="30" as="geometry" />
        </mxCell>
        <mxCell id="HXH-O_uExGK2S-_WwO7n-207" value="deleteById" style="text;strokeColor=none;fillColor=none;spacingLeft=4;spacingRight=4;overflow=hidden;rotatable=0;points=[[0,0.5],[1,0.5]];portConstraint=eastwest;fontSize=12;whiteSpace=wrap;html=1;" vertex="1" parent="HXH-O_uExGK2S-_WwO7n-199">
          <mxGeometry y="206" width="110" height="30" as="geometry" />
        </mxCell>
        <mxCell id="HXH-O_uExGK2S-_WwO7n-206" value="login" style="text;strokeColor=none;fillColor=none;spacingLeft=4;spacingRight=4;overflow=hidden;rotatable=0;points=[[0,0.5],[1,0.5]];portConstraint=eastwest;fontSize=12;whiteSpace=wrap;html=1;" vertex="1" parent="HXH-O_uExGK2S-_WwO7n-199">
          <mxGeometry y="236" width="110" height="30" as="geometry" />
        </mxCell>
        <mxCell id="HXH-O_uExGK2S-_WwO7n-205" value="logout" style="text;strokeColor=none;fillColor=none;spacingLeft=4;spacingRight=4;overflow=hidden;rotatable=0;points=[[0,0.5],[1,0.5]];portConstraint=eastwest;fontSize=12;whiteSpace=wrap;html=1;" vertex="1" parent="HXH-O_uExGK2S-_WwO7n-199">
          <mxGeometry y="266" width="110" height="30" as="geometry" />
        </mxCell>
        <mxCell id="HXH-O_uExGK2S-_WwO7n-204" value="validateToken" style="text;strokeColor=none;fillColor=none;spacingLeft=4;spacingRight=4;overflow=hidden;rotatable=0;points=[[0,0.5],[1,0.5]];portConstraint=eastwest;fontSize=12;whiteSpace=wrap;html=1;" vertex="1" parent="HXH-O_uExGK2S-_WwO7n-199">
          <mxGeometry y="296" width="110" height="30" as="geometry" />
        </mxCell>
        <mxCell id="HXH-O_uExGK2S-_WwO7n-236" value="" style="shape=table;startSize=0;container=1;collapsible=0;childLayout=tableLayout;align=left;" vertex="1" parent="WIyWlLk6GJQsqaUBKTNV-1">
          <mxGeometry x="400" y="111" width="170" height="40" as="geometry" />
        </mxCell>
        <mxCell id="HXH-O_uExGK2S-_WwO7n-237" value="" style="shape=tableRow;horizontal=0;startSize=0;swimlaneHead=0;swimlaneBody=0;strokeColor=inherit;top=0;left=0;bottom=0;right=0;collapsible=0;dropTarget=0;fillColor=none;points=[[0,0.5],[1,0.5]];portConstraint=eastwest;align=left;" vertex="1" parent="HXH-O_uExGK2S-_WwO7n-236">
          <mxGeometry width="170" height="20" as="geometry" />
        </mxCell>
        <mxCell id="HXH-O_uExGK2S-_WwO7n-238" value="Phones" style="shape=partialRectangle;html=1;whiteSpace=wrap;connectable=0;strokeColor=inherit;overflow=hidden;fillColor=none;top=0;left=0;bottom=0;right=0;pointerEvents=1;align=left;" vertex="1" parent="HXH-O_uExGK2S-_WwO7n-237">
          <mxGeometry width="170" height="20" as="geometry">
            <mxRectangle width="170" height="20" as="alternateBounds" />
          </mxGeometry>
        </mxCell>
        <mxCell id="HXH-O_uExGK2S-_WwO7n-239" value="" style="shape=tableRow;horizontal=0;startSize=0;swimlaneHead=0;swimlaneBody=0;strokeColor=inherit;top=0;left=0;bottom=0;right=0;collapsible=0;dropTarget=0;fillColor=none;points=[[0,0.5],[1,0.5]];portConstraint=eastwest;align=left;" vertex="1" parent="HXH-O_uExGK2S-_WwO7n-236">
          <mxGeometry y="20" width="170" height="20" as="geometry" />
        </mxCell>
        <mxCell id="HXH-O_uExGK2S-_WwO7n-240" value="User" style="shape=partialRectangle;html=1;whiteSpace=wrap;connectable=0;strokeColor=inherit;overflow=hidden;fillColor=none;top=0;left=0;bottom=0;right=0;pointerEvents=1;align=left;" vertex="1" parent="HXH-O_uExGK2S-_WwO7n-239">
          <mxGeometry width="170" height="20" as="geometry">
            <mxRectangle width="170" height="20" as="alternateBounds" />
          </mxGeometry>
        </mxCell>
        <mxCell id="HXH-O_uExGK2S-_WwO7n-241" value="" style="shape=table;startSize=0;container=1;collapsible=0;childLayout=tableLayout;align=left;" vertex="1" parent="WIyWlLk6GJQsqaUBKTNV-1">
          <mxGeometry x="400" y="161" width="170" height="134" as="geometry" />
        </mxCell>
        <mxCell id="HXH-O_uExGK2S-_WwO7n-242" value="" style="shape=tableRow;horizontal=0;startSize=0;swimlaneHead=0;swimlaneBody=0;strokeColor=inherit;top=0;left=0;bottom=0;right=0;collapsible=0;dropTarget=0;fillColor=none;points=[[0,0.5],[1,0.5]];portConstraint=eastwest;align=left;" vertex="1" parent="HXH-O_uExGK2S-_WwO7n-241">
          <mxGeometry width="170" height="20" as="geometry" />
        </mxCell>
        <mxCell id="HXH-O_uExGK2S-_WwO7n-243" value="RequestLoginModel" style="shape=partialRectangle;html=1;whiteSpace=wrap;connectable=0;strokeColor=inherit;overflow=hidden;fillColor=none;top=0;left=0;bottom=0;right=0;pointerEvents=1;align=left;" vertex="1" parent="HXH-O_uExGK2S-_WwO7n-242">
          <mxGeometry width="170" height="20" as="geometry">
            <mxRectangle width="170" height="20" as="alternateBounds" />
          </mxGeometry>
        </mxCell>
        <mxCell id="HXH-O_uExGK2S-_WwO7n-244" value="" style="shape=tableRow;horizontal=0;startSize=0;swimlaneHead=0;swimlaneBody=0;strokeColor=inherit;top=0;left=0;bottom=0;right=0;collapsible=0;dropTarget=0;fillColor=none;points=[[0,0.5],[1,0.5]];portConstraint=eastwest;align=left;" vertex="1" parent="HXH-O_uExGK2S-_WwO7n-241">
          <mxGeometry y="20" width="170" height="18" as="geometry" />
        </mxCell>
        <mxCell id="HXH-O_uExGK2S-_WwO7n-245" value="RequestUserModel" style="shape=partialRectangle;html=1;whiteSpace=wrap;connectable=0;strokeColor=inherit;overflow=hidden;fillColor=none;top=0;left=0;bottom=0;right=0;pointerEvents=1;align=left;" vertex="1" parent="HXH-O_uExGK2S-_WwO7n-244">
          <mxGeometry width="170" height="18" as="geometry">
            <mxRectangle width="170" height="18" as="alternateBounds" />
          </mxGeometry>
        </mxCell>
        <mxCell id="HXH-O_uExGK2S-_WwO7n-246" value="" style="shape=tableRow;horizontal=0;startSize=0;swimlaneHead=0;swimlaneBody=0;strokeColor=inherit;top=0;left=0;bottom=0;right=0;collapsible=0;dropTarget=0;fillColor=none;points=[[0,0.5],[1,0.5]];portConstraint=eastwest;align=left;" vertex="1" parent="HXH-O_uExGK2S-_WwO7n-241">
          <mxGeometry y="38" width="170" height="18" as="geometry" />
        </mxCell>
        <mxCell id="HXH-O_uExGK2S-_WwO7n-247" value="RequestUserUpdateModel" style="shape=partialRectangle;html=1;whiteSpace=wrap;connectable=0;strokeColor=inherit;overflow=hidden;fillColor=none;top=0;left=0;bottom=0;right=0;pointerEvents=1;align=left;" vertex="1" parent="HXH-O_uExGK2S-_WwO7n-246">
          <mxGeometry width="170" height="18" as="geometry">
            <mxRectangle width="170" height="18" as="alternateBounds" />
          </mxGeometry>
        </mxCell>
        <mxCell id="HXH-O_uExGK2S-_WwO7n-248" value="" style="shape=tableRow;horizontal=0;startSize=0;swimlaneHead=0;swimlaneBody=0;strokeColor=inherit;top=0;left=0;bottom=0;right=0;collapsible=0;dropTarget=0;fillColor=none;points=[[0,0.5],[1,0.5]];portConstraint=eastwest;align=left;" vertex="1" parent="HXH-O_uExGK2S-_WwO7n-241">
          <mxGeometry y="56" width="170" height="20" as="geometry" />
        </mxCell>
        <mxCell id="HXH-O_uExGK2S-_WwO7n-249" value="RequestValidateModel" style="shape=partialRectangle;html=1;whiteSpace=wrap;connectable=0;strokeColor=inherit;overflow=hidden;fillColor=none;top=0;left=0;bottom=0;right=0;pointerEvents=1;align=left;" vertex="1" parent="HXH-O_uExGK2S-_WwO7n-248">
          <mxGeometry width="170" height="20" as="geometry">
            <mxRectangle width="170" height="20" as="alternateBounds" />
          </mxGeometry>
        </mxCell>
        <mxCell id="HXH-O_uExGK2S-_WwO7n-250" value="" style="shape=tableRow;horizontal=0;startSize=0;swimlaneHead=0;swimlaneBody=0;strokeColor=inherit;top=0;left=0;bottom=0;right=0;collapsible=0;dropTarget=0;fillColor=none;points=[[0,0.5],[1,0.5]];portConstraint=eastwest;align=left;" vertex="1" parent="HXH-O_uExGK2S-_WwO7n-241">
          <mxGeometry y="76" width="170" height="18" as="geometry" />
        </mxCell>
        <mxCell id="HXH-O_uExGK2S-_WwO7n-251" value="ResposeUserModel" style="shape=partialRectangle;html=1;whiteSpace=wrap;connectable=0;strokeColor=inherit;overflow=hidden;fillColor=none;top=0;left=0;bottom=0;right=0;pointerEvents=1;align=left;" vertex="1" parent="HXH-O_uExGK2S-_WwO7n-250">
          <mxGeometry width="170" height="18" as="geometry">
            <mxRectangle width="170" height="18" as="alternateBounds" />
          </mxGeometry>
        </mxCell>
        <mxCell id="HXH-O_uExGK2S-_WwO7n-252" value="" style="shape=tableRow;horizontal=0;startSize=0;swimlaneHead=0;swimlaneBody=0;strokeColor=inherit;top=0;left=0;bottom=0;right=0;collapsible=0;dropTarget=0;fillColor=none;points=[[0,0.5],[1,0.5]];portConstraint=eastwest;align=left;" vertex="1" parent="HXH-O_uExGK2S-_WwO7n-241">
          <mxGeometry y="94" width="170" height="21" as="geometry" />
        </mxCell>
        <mxCell id="HXH-O_uExGK2S-_WwO7n-253" value="ResponseUserCreationModel" style="shape=partialRectangle;html=1;whiteSpace=wrap;connectable=0;strokeColor=inherit;overflow=hidden;fillColor=none;top=0;left=0;bottom=0;right=0;pointerEvents=1;align=left;" vertex="1" parent="HXH-O_uExGK2S-_WwO7n-252">
          <mxGeometry width="170" height="21" as="geometry">
            <mxRectangle width="170" height="21" as="alternateBounds" />
          </mxGeometry>
        </mxCell>
        <mxCell id="HXH-O_uExGK2S-_WwO7n-254" value="" style="shape=tableRow;horizontal=0;startSize=0;swimlaneHead=0;swimlaneBody=0;strokeColor=inherit;top=0;left=0;bottom=0;right=0;collapsible=0;dropTarget=0;fillColor=none;points=[[0,0.5],[1,0.5]];portConstraint=eastwest;align=left;" vertex="1" parent="HXH-O_uExGK2S-_WwO7n-241">
          <mxGeometry y="115" width="170" height="19" as="geometry" />
        </mxCell>
        <mxCell id="HXH-O_uExGK2S-_WwO7n-255" value="ResponseModel" style="shape=partialRectangle;html=1;whiteSpace=wrap;connectable=0;strokeColor=inherit;overflow=hidden;fillColor=none;top=0;left=0;bottom=0;right=0;pointerEvents=1;align=left;" vertex="1" parent="HXH-O_uExGK2S-_WwO7n-254">
          <mxGeometry width="170" height="19" as="geometry">
            <mxRectangle width="170" height="19" as="alternateBounds" />
          </mxGeometry>
        </mxCell>
        <mxCell id="HXH-O_uExGK2S-_WwO7n-277" style="edgeStyle=orthogonalEdgeStyle;rounded=0;orthogonalLoop=1;jettySize=auto;html=1;" edge="1" parent="WIyWlLk6GJQsqaUBKTNV-1" source="HXH-O_uExGK2S-_WwO7n-197">
          <mxGeometry relative="1" as="geometry">
            <mxPoint x="400" y="216" as="targetPoint" />
            <Array as="points">
              <mxPoint x="400" y="216" />
              <mxPoint x="400" y="216" />
            </Array>
          </mxGeometry>
        </mxCell>
        <mxCell id="HXH-O_uExGK2S-_WwO7n-278" style="edgeStyle=orthogonalEdgeStyle;rounded=0;orthogonalLoop=1;jettySize=auto;html=1;entryX=0;entryY=0.057;entryDx=0;entryDy=0;entryPerimeter=0;" edge="1" parent="WIyWlLk6GJQsqaUBKTNV-1" source="HXH-O_uExGK2S-_WwO7n-196" target="HXH-O_uExGK2S-_WwO7n-239">
          <mxGeometry relative="1" as="geometry" />
        </mxCell>
        <mxCell id="HXH-O_uExGK2S-_WwO7n-293" style="edgeStyle=orthogonalEdgeStyle;rounded=0;orthogonalLoop=1;jettySize=auto;html=1;entryX=0;entryY=0.5;entryDx=0;entryDy=0;" edge="1" parent="WIyWlLk6GJQsqaUBKTNV-1" source="HXH-O_uExGK2S-_WwO7n-284" target="HXH-O_uExGK2S-_WwO7n-288">
          <mxGeometry relative="1" as="geometry" />
        </mxCell>
        <mxCell id="HXH-O_uExGK2S-_WwO7n-294" style="edgeStyle=orthogonalEdgeStyle;rounded=0;orthogonalLoop=1;jettySize=auto;html=1;" edge="1" parent="WIyWlLk6GJQsqaUBKTNV-1" source="HXH-O_uExGK2S-_WwO7n-284" target="HXH-O_uExGK2S-_WwO7n-169">
          <mxGeometry relative="1" as="geometry" />
        </mxCell>
        <mxCell id="HXH-O_uExGK2S-_WwO7n-284" value="Componentes" style="rounded=1;whiteSpace=wrap;html=1;absoluteArcSize=1;arcSize=14;strokeWidth=2;" vertex="1" parent="WIyWlLk6GJQsqaUBKTNV-1">
          <mxGeometry x="43.75" y="368" width="117.5" height="60" as="geometry" />
        </mxCell>
        <mxCell id="HXH-O_uExGK2S-_WwO7n-286" value="Componentes" style="swimlane;fontStyle=0;childLayout=stackLayout;horizontal=1;startSize=26;horizontalStack=0;resizeParent=1;resizeParentMax=0;resizeLast=0;collapsible=1;marginBottom=0;align=center;fontSize=14;" vertex="1" parent="WIyWlLk6GJQsqaUBKTNV-1">
          <mxGeometry x="240" y="327" width="150" height="206" as="geometry" />
        </mxCell>
        <mxCell id="HXH-O_uExGK2S-_WwO7n-287" value="UserMapper" style="text;strokeColor=none;fillColor=none;spacingLeft=4;spacingRight=4;overflow=hidden;rotatable=0;points=[[0,0.5],[1,0.5]];portConstraint=eastwest;fontSize=12;whiteSpace=wrap;html=1;" vertex="1" parent="HXH-O_uExGK2S-_WwO7n-286">
          <mxGeometry y="26" width="150" height="30" as="geometry" />
        </mxCell>
        <mxCell id="HXH-O_uExGK2S-_WwO7n-288" value="JWTProvider" style="text;strokeColor=none;fillColor=none;spacingLeft=4;spacingRight=4;overflow=hidden;rotatable=0;points=[[0,0.5],[1,0.5]];portConstraint=eastwest;fontSize=12;whiteSpace=wrap;html=1;" vertex="1" parent="HXH-O_uExGK2S-_WwO7n-286">
          <mxGeometry y="56" width="150" height="30" as="geometry" />
        </mxCell>
        <mxCell id="HXH-O_uExGK2S-_WwO7n-292" value="PasswordEncoderConfig" style="text;strokeColor=none;fillColor=none;spacingLeft=4;spacingRight=4;overflow=hidden;rotatable=0;points=[[0,0.5],[1,0.5]];portConstraint=eastwest;fontSize=12;whiteSpace=wrap;html=1;" vertex="1" parent="HXH-O_uExGK2S-_WwO7n-286">
          <mxGeometry y="86" width="150" height="30" as="geometry" />
        </mxCell>
        <mxCell id="HXH-O_uExGK2S-_WwO7n-291" value="SecurityConfig" style="text;strokeColor=none;fillColor=none;spacingLeft=4;spacingRight=4;overflow=hidden;rotatable=0;points=[[0,0.5],[1,0.5]];portConstraint=eastwest;fontSize=12;whiteSpace=wrap;html=1;" vertex="1" parent="HXH-O_uExGK2S-_WwO7n-286">
          <mxGeometry y="116" width="150" height="30" as="geometry" />
        </mxCell>
        <mxCell id="HXH-O_uExGK2S-_WwO7n-446" value="PhonesRepository" style="text;strokeColor=none;fillColor=none;spacingLeft=4;spacingRight=4;overflow=hidden;rotatable=0;points=[[0,0.5],[1,0.5]];portConstraint=eastwest;fontSize=12;whiteSpace=wrap;html=1;" vertex="1" parent="HXH-O_uExGK2S-_WwO7n-286">
          <mxGeometry y="146" width="150" height="30" as="geometry" />
        </mxCell>
        <mxCell id="HXH-O_uExGK2S-_WwO7n-447" value="UserRepository" style="text;strokeColor=none;fillColor=none;spacingLeft=4;spacingRight=4;overflow=hidden;rotatable=0;points=[[0,0.5],[1,0.5]];portConstraint=eastwest;fontSize=12;whiteSpace=wrap;html=1;" vertex="1" parent="HXH-O_uExGK2S-_WwO7n-286">
          <mxGeometry y="176" width="150" height="30" as="geometry" />
        </mxCell>
        <mxCell id="HXH-O_uExGK2S-_WwO7n-329" value="Campos" style="swimlane;fontStyle=0;childLayout=stackLayout;horizontal=1;startSize=26;horizontalStack=0;resizeParent=1;resizeParentMax=0;resizeLast=0;collapsible=1;marginBottom=0;align=center;fontSize=14;" vertex="1" parent="WIyWlLk6GJQsqaUBKTNV-1">
          <mxGeometry x="480" y="-235" width="160" height="56" as="geometry" />
        </mxCell>
        <mxCell id="HXH-O_uExGK2S-_WwO7n-330" value="token: String" style="text;strokeColor=none;fillColor=none;spacingLeft=4;spacingRight=4;overflow=hidden;rotatable=0;points=[[0,0.5],[1,0.5]];portConstraint=eastwest;fontSize=12;whiteSpace=wrap;html=1;" vertex="1" parent="HXH-O_uExGK2S-_WwO7n-329">
          <mxGeometry y="26" width="160" height="30" as="geometry" />
        </mxCell>
        <mxCell id="HXH-O_uExGK2S-_WwO7n-333" value="Campos" style="swimlane;fontStyle=0;childLayout=stackLayout;horizontal=1;startSize=26;horizontalStack=0;resizeParent=1;resizeParentMax=0;resizeLast=0;collapsible=1;marginBottom=0;align=center;fontSize=14;" vertex="1" parent="WIyWlLk6GJQsqaUBKTNV-1">
          <mxGeometry x="650" y="-235" width="160" height="176" as="geometry">
            <mxRectangle x="650" y="-150" width="90" height="30" as="alternateBounds" />
          </mxGeometry>
        </mxCell>
        <mxCell id="HXH-O_uExGK2S-_WwO7n-338" value="id: String" style="text;strokeColor=none;fillColor=none;spacingLeft=4;spacingRight=4;overflow=hidden;rotatable=0;points=[[0,0.5],[1,0.5]];portConstraint=eastwest;fontSize=12;whiteSpace=wrap;html=1;" vertex="1" parent="HXH-O_uExGK2S-_WwO7n-333">
          <mxGeometry y="26" width="160" height="30" as="geometry" />
        </mxCell>
        <mxCell id="HXH-O_uExGK2S-_WwO7n-334" value="number: String&lt;table&gt;&lt;tbody&gt;&lt;tr&gt;&lt;td&gt;&lt;br&gt;&lt;/td&gt;&lt;/tr&gt;&lt;tr&gt;&lt;td&gt;&lt;br&gt;&lt;/td&gt;&lt;/tr&gt;&lt;/tbody&gt;&lt;/table&gt;" style="text;strokeColor=none;fillColor=none;spacingLeft=4;spacingRight=4;overflow=hidden;rotatable=0;points=[[0,0.5],[1,0.5]];portConstraint=eastwest;fontSize=12;whiteSpace=wrap;html=1;" vertex="1" parent="HXH-O_uExGK2S-_WwO7n-333">
          <mxGeometry y="56" width="160" height="30" as="geometry" />
        </mxCell>
        <mxCell id="HXH-O_uExGK2S-_WwO7n-337" value="citycode: String" style="text;strokeColor=none;fillColor=none;spacingLeft=4;spacingRight=4;overflow=hidden;rotatable=0;points=[[0,0.5],[1,0.5]];portConstraint=eastwest;fontSize=12;whiteSpace=wrap;html=1;" vertex="1" parent="HXH-O_uExGK2S-_WwO7n-333">
          <mxGeometry y="86" width="160" height="30" as="geometry" />
        </mxCell>
        <mxCell id="HXH-O_uExGK2S-_WwO7n-336" value="contrycode: String" style="text;strokeColor=none;fillColor=none;spacingLeft=4;spacingRight=4;overflow=hidden;rotatable=0;points=[[0,0.5],[1,0.5]];portConstraint=eastwest;fontSize=12;whiteSpace=wrap;html=1;" vertex="1" parent="HXH-O_uExGK2S-_WwO7n-333">
          <mxGeometry y="116" width="160" height="30" as="geometry" />
        </mxCell>
        <mxCell id="HXH-O_uExGK2S-_WwO7n-341" value="user: User (USERID)" style="text;strokeColor=none;fillColor=none;spacingLeft=4;spacingRight=4;overflow=hidden;rotatable=0;points=[[0,0.5],[1,0.5]];portConstraint=eastwest;fontSize=12;whiteSpace=wrap;html=1;" vertex="1" parent="HXH-O_uExGK2S-_WwO7n-333">
          <mxGeometry y="146" width="160" height="30" as="geometry" />
        </mxCell>
        <mxCell id="HXH-O_uExGK2S-_WwO7n-342" value="Campos" style="swimlane;fontStyle=0;childLayout=stackLayout;horizontal=1;startSize=26;horizontalStack=0;resizeParent=1;resizeParentMax=0;resizeLast=0;collapsible=1;marginBottom=0;align=center;fontSize=14;" vertex="1" parent="WIyWlLk6GJQsqaUBKTNV-1">
          <mxGeometry x="870" y="-290" width="160" height="326" as="geometry">
            <mxRectangle x="650" y="-150" width="90" height="30" as="alternateBounds" />
          </mxGeometry>
        </mxCell>
        <mxCell id="HXH-O_uExGK2S-_WwO7n-343" value="id: String" style="text;strokeColor=none;fillColor=none;spacingLeft=4;spacingRight=4;overflow=hidden;rotatable=0;points=[[0,0.5],[1,0.5]];portConstraint=eastwest;fontSize=12;whiteSpace=wrap;html=1;" vertex="1" parent="HXH-O_uExGK2S-_WwO7n-342">
          <mxGeometry y="26" width="160" height="30" as="geometry" />
        </mxCell>
        <mxCell id="HXH-O_uExGK2S-_WwO7n-344" value="name: String&lt;table&gt;&lt;tbody&gt;&lt;tr&gt;&lt;td&gt;&lt;br&gt;&lt;/td&gt;&lt;/tr&gt;&lt;tr&gt;&lt;td&gt;&lt;br&gt;&lt;/td&gt;&lt;/tr&gt;&lt;/tbody&gt;&lt;/table&gt;" style="text;strokeColor=none;fillColor=none;spacingLeft=4;spacingRight=4;overflow=hidden;rotatable=0;points=[[0,0.5],[1,0.5]];portConstraint=eastwest;fontSize=12;whiteSpace=wrap;html=1;" vertex="1" parent="HXH-O_uExGK2S-_WwO7n-342">
          <mxGeometry y="56" width="160" height="30" as="geometry" />
        </mxCell>
        <mxCell id="HXH-O_uExGK2S-_WwO7n-345" value="email: String" style="text;strokeColor=none;fillColor=none;spacingLeft=4;spacingRight=4;overflow=hidden;rotatable=0;points=[[0,0.5],[1,0.5]];portConstraint=eastwest;fontSize=12;whiteSpace=wrap;html=1;" vertex="1" parent="HXH-O_uExGK2S-_WwO7n-342">
          <mxGeometry y="86" width="160" height="30" as="geometry" />
        </mxCell>
        <mxCell id="HXH-O_uExGK2S-_WwO7n-346" value="password: String" style="text;strokeColor=none;fillColor=none;spacingLeft=4;spacingRight=4;overflow=hidden;rotatable=0;points=[[0,0.5],[1,0.5]];portConstraint=eastwest;fontSize=12;whiteSpace=wrap;html=1;" vertex="1" parent="HXH-O_uExGK2S-_WwO7n-342">
          <mxGeometry y="116" width="160" height="30" as="geometry" />
        </mxCell>
        <mxCell id="HXH-O_uExGK2S-_WwO7n-347" value="phones: List&amp;lt;Phones&amp;gt;" style="text;strokeColor=none;fillColor=none;spacingLeft=4;spacingRight=4;overflow=hidden;rotatable=0;points=[[0,0.5],[1,0.5]];portConstraint=eastwest;fontSize=12;whiteSpace=wrap;html=1;" vertex="1" parent="HXH-O_uExGK2S-_WwO7n-342">
          <mxGeometry y="146" width="160" height="30" as="geometry" />
        </mxCell>
        <mxCell id="HXH-O_uExGK2S-_WwO7n-348" value="created: Date" style="text;strokeColor=none;fillColor=none;spacingLeft=4;spacingRight=4;overflow=hidden;rotatable=0;points=[[0,0.5],[1,0.5]];portConstraint=eastwest;fontSize=12;whiteSpace=wrap;html=1;" vertex="1" parent="HXH-O_uExGK2S-_WwO7n-342">
          <mxGeometry y="176" width="160" height="30" as="geometry" />
        </mxCell>
        <mxCell id="HXH-O_uExGK2S-_WwO7n-352" value="modified: Date" style="text;strokeColor=none;fillColor=none;spacingLeft=4;spacingRight=4;overflow=hidden;rotatable=0;points=[[0,0.5],[1,0.5]];portConstraint=eastwest;fontSize=12;whiteSpace=wrap;html=1;" vertex="1" parent="HXH-O_uExGK2S-_WwO7n-342">
          <mxGeometry y="206" width="160" height="30" as="geometry" />
        </mxCell>
        <mxCell id="HXH-O_uExGK2S-_WwO7n-351" value="last_login: Date" style="text;strokeColor=none;fillColor=none;spacingLeft=4;spacingRight=4;overflow=hidden;rotatable=0;points=[[0,0.5],[1,0.5]];portConstraint=eastwest;fontSize=12;whiteSpace=wrap;html=1;" vertex="1" parent="HXH-O_uExGK2S-_WwO7n-342">
          <mxGeometry y="236" width="160" height="30" as="geometry" />
        </mxCell>
        <mxCell id="HXH-O_uExGK2S-_WwO7n-350" value="token: String" style="text;strokeColor=none;fillColor=none;spacingLeft=4;spacingRight=4;overflow=hidden;rotatable=0;points=[[0,0.5],[1,0.5]];portConstraint=eastwest;fontSize=12;whiteSpace=wrap;html=1;" vertex="1" parent="HXH-O_uExGK2S-_WwO7n-342">
          <mxGeometry y="266" width="160" height="30" as="geometry" />
        </mxCell>
        <mxCell id="HXH-O_uExGK2S-_WwO7n-349" value="isactive: boolean" style="text;strokeColor=none;fillColor=none;spacingLeft=4;spacingRight=4;overflow=hidden;rotatable=0;points=[[0,0.5],[1,0.5]];portConstraint=eastwest;fontSize=12;whiteSpace=wrap;html=1;" vertex="1" parent="HXH-O_uExGK2S-_WwO7n-342">
          <mxGeometry y="296" width="160" height="30" as="geometry" />
        </mxCell>
        <mxCell id="HXH-O_uExGK2S-_WwO7n-355" value="" style="shape=table;startSize=0;container=1;collapsible=0;childLayout=tableLayout;align=left;" vertex="1" parent="WIyWlLk6GJQsqaUBKTNV-1">
          <mxGeometry x="400" y="78" width="170" height="20" as="geometry" />
        </mxCell>
        <mxCell id="HXH-O_uExGK2S-_WwO7n-356" value="" style="shape=tableRow;horizontal=0;startSize=0;swimlaneHead=0;swimlaneBody=0;strokeColor=inherit;top=0;left=0;bottom=0;right=0;collapsible=0;dropTarget=0;fillColor=none;points=[[0,0.5],[1,0.5]];portConstraint=eastwest;align=left;" vertex="1" parent="HXH-O_uExGK2S-_WwO7n-355">
          <mxGeometry width="170" height="20" as="geometry" />
        </mxCell>
        <mxCell id="HXH-O_uExGK2S-_WwO7n-357" value="TokenDto" style="shape=partialRectangle;html=1;whiteSpace=wrap;connectable=0;strokeColor=inherit;overflow=hidden;fillColor=none;top=0;left=0;bottom=0;right=0;pointerEvents=1;align=left;" vertex="1" parent="HXH-O_uExGK2S-_WwO7n-356">
          <mxGeometry width="170" height="20" as="geometry">
            <mxRectangle width="170" height="20" as="alternateBounds" />
          </mxGeometry>
        </mxCell>
        <mxCell id="HXH-O_uExGK2S-_WwO7n-358" style="edgeStyle=orthogonalEdgeStyle;rounded=0;orthogonalLoop=1;jettySize=auto;html=1;exitX=1;exitY=0.5;exitDx=0;exitDy=0;" edge="1" parent="WIyWlLk6GJQsqaUBKTNV-1" source="HXH-O_uExGK2S-_WwO7n-195">
          <mxGeometry relative="1" as="geometry">
            <mxPoint x="360" y="148" as="sourcePoint" />
            <Array as="points">
              <mxPoint x="370" y="156" />
              <mxPoint x="370" y="90" />
            </Array>
            <mxPoint x="400" y="90" as="targetPoint" />
          </mxGeometry>
        </mxCell>
        <mxCell id="HXH-O_uExGK2S-_WwO7n-359" style="edgeStyle=orthogonalEdgeStyle;rounded=0;orthogonalLoop=1;jettySize=auto;html=1;entryX=0.625;entryY=1.031;entryDx=0;entryDy=0;entryPerimeter=0;" edge="1" parent="WIyWlLk6GJQsqaUBKTNV-1" source="HXH-O_uExGK2S-_WwO7n-356" target="HXH-O_uExGK2S-_WwO7n-330">
          <mxGeometry relative="1" as="geometry">
            <Array as="points">
              <mxPoint x="580" y="88" />
            </Array>
          </mxGeometry>
        </mxCell>
        <mxCell id="HXH-O_uExGK2S-_WwO7n-361" style="edgeStyle=orthogonalEdgeStyle;rounded=0;orthogonalLoop=1;jettySize=auto;html=1;entryX=0;entryY=1.133;entryDx=0;entryDy=0;entryPerimeter=0;" edge="1" parent="WIyWlLk6GJQsqaUBKTNV-1" source="HXH-O_uExGK2S-_WwO7n-237" target="HXH-O_uExGK2S-_WwO7n-334">
          <mxGeometry relative="1" as="geometry" />
        </mxCell>
        <mxCell id="HXH-O_uExGK2S-_WwO7n-362" style="edgeStyle=orthogonalEdgeStyle;rounded=0;orthogonalLoop=1;jettySize=auto;html=1;" edge="1" parent="WIyWlLk6GJQsqaUBKTNV-1" source="HXH-O_uExGK2S-_WwO7n-239">
          <mxGeometry relative="1" as="geometry">
            <mxPoint x="870" y="-164" as="targetPoint" />
            <Array as="points">
              <mxPoint x="630" y="141" />
              <mxPoint x="630" y="-44" />
              <mxPoint x="840" y="-44" />
              <mxPoint x="840" y="-164" />
              <mxPoint x="870" y="-164" />
            </Array>
          </mxGeometry>
        </mxCell>
        <mxCell id="HXH-O_uExGK2S-_WwO7n-369" value="Campos" style="swimlane;fontStyle=0;childLayout=stackLayout;horizontal=1;startSize=26;horizontalStack=0;resizeParent=1;resizeParentMax=0;resizeLast=0;collapsible=1;marginBottom=0;align=center;fontSize=14;" vertex="1" parent="WIyWlLk6GJQsqaUBKTNV-1">
          <mxGeometry x="680" y="-4" width="160" height="86" as="geometry">
            <mxRectangle x="650" y="-150" width="90" height="30" as="alternateBounds" />
          </mxGeometry>
        </mxCell>
        <mxCell id="HXH-O_uExGK2S-_WwO7n-372" value="email: String" style="text;strokeColor=none;fillColor=none;spacingLeft=4;spacingRight=4;overflow=hidden;rotatable=0;points=[[0,0.5],[1,0.5]];portConstraint=eastwest;fontSize=12;whiteSpace=wrap;html=1;" vertex="1" parent="HXH-O_uExGK2S-_WwO7n-369">
          <mxGeometry y="26" width="160" height="30" as="geometry" />
        </mxCell>
        <mxCell id="HXH-O_uExGK2S-_WwO7n-373" value="password: String" style="text;strokeColor=none;fillColor=none;spacingLeft=4;spacingRight=4;overflow=hidden;rotatable=0;points=[[0,0.5],[1,0.5]];portConstraint=eastwest;fontSize=12;whiteSpace=wrap;html=1;" vertex="1" parent="HXH-O_uExGK2S-_WwO7n-369">
          <mxGeometry y="56" width="160" height="30" as="geometry" />
        </mxCell>
        <mxCell id="HXH-O_uExGK2S-_WwO7n-380" style="edgeStyle=orthogonalEdgeStyle;rounded=0;orthogonalLoop=1;jettySize=auto;html=1;entryX=-0.007;entryY=0.845;entryDx=0;entryDy=0;entryPerimeter=0;" edge="1" parent="WIyWlLk6GJQsqaUBKTNV-1" source="HXH-O_uExGK2S-_WwO7n-242" target="HXH-O_uExGK2S-_WwO7n-372">
          <mxGeometry relative="1" as="geometry">
            <Array as="points">
              <mxPoint x="640" y="171" />
              <mxPoint x="640" y="47" />
            </Array>
          </mxGeometry>
        </mxCell>
        <mxCell id="HXH-O_uExGK2S-_WwO7n-382" value="Campos" style="swimlane;fontStyle=0;childLayout=stackLayout;horizontal=1;startSize=26;horizontalStack=0;resizeParent=1;resizeParentMax=0;resizeLast=0;collapsible=1;marginBottom=0;align=center;fontSize=14;" vertex="1" parent="WIyWlLk6GJQsqaUBKTNV-1">
          <mxGeometry x="890" y="66" width="160" height="146" as="geometry">
            <mxRectangle x="650" y="-150" width="90" height="30" as="alternateBounds" />
          </mxGeometry>
        </mxCell>
        <mxCell id="HXH-O_uExGK2S-_WwO7n-384" value="name: String&lt;table&gt;&lt;tbody&gt;&lt;tr&gt;&lt;td&gt;&lt;br&gt;&lt;/td&gt;&lt;/tr&gt;&lt;tr&gt;&lt;td&gt;&lt;br&gt;&lt;/td&gt;&lt;/tr&gt;&lt;/tbody&gt;&lt;/table&gt;" style="text;strokeColor=none;fillColor=none;spacingLeft=4;spacingRight=4;overflow=hidden;rotatable=0;points=[[0,0.5],[1,0.5]];portConstraint=eastwest;fontSize=12;whiteSpace=wrap;html=1;" vertex="1" parent="HXH-O_uExGK2S-_WwO7n-382">
          <mxGeometry y="26" width="160" height="30" as="geometry" />
        </mxCell>
        <mxCell id="HXH-O_uExGK2S-_WwO7n-385" value="email: String" style="text;strokeColor=none;fillColor=none;spacingLeft=4;spacingRight=4;overflow=hidden;rotatable=0;points=[[0,0.5],[1,0.5]];portConstraint=eastwest;fontSize=12;whiteSpace=wrap;html=1;" vertex="1" parent="HXH-O_uExGK2S-_WwO7n-382">
          <mxGeometry y="56" width="160" height="30" as="geometry" />
        </mxCell>
        <mxCell id="HXH-O_uExGK2S-_WwO7n-386" value="password: String" style="text;strokeColor=none;fillColor=none;spacingLeft=4;spacingRight=4;overflow=hidden;rotatable=0;points=[[0,0.5],[1,0.5]];portConstraint=eastwest;fontSize=12;whiteSpace=wrap;html=1;" vertex="1" parent="HXH-O_uExGK2S-_WwO7n-382">
          <mxGeometry y="86" width="160" height="30" as="geometry" />
        </mxCell>
        <mxCell id="HXH-O_uExGK2S-_WwO7n-387" value="phones: List&amp;lt;Phones&amp;gt;" style="text;strokeColor=none;fillColor=none;spacingLeft=4;spacingRight=4;overflow=hidden;rotatable=0;points=[[0,0.5],[1,0.5]];portConstraint=eastwest;fontSize=12;whiteSpace=wrap;html=1;" vertex="1" parent="HXH-O_uExGK2S-_WwO7n-382">
          <mxGeometry y="116" width="160" height="30" as="geometry" />
        </mxCell>
        <mxCell id="HXH-O_uExGK2S-_WwO7n-393" style="edgeStyle=orthogonalEdgeStyle;rounded=0;orthogonalLoop=1;jettySize=auto;html=1;" edge="1" parent="WIyWlLk6GJQsqaUBKTNV-1" source="HXH-O_uExGK2S-_WwO7n-244" target="HXH-O_uExGK2S-_WwO7n-382">
          <mxGeometry relative="1" as="geometry">
            <Array as="points">
              <mxPoint x="650" y="190" />
              <mxPoint x="650" y="96" />
            </Array>
          </mxGeometry>
        </mxCell>
        <mxCell id="HXH-O_uExGK2S-_WwO7n-411" style="edgeStyle=orthogonalEdgeStyle;rounded=0;orthogonalLoop=1;jettySize=auto;html=1;exitX=1;exitY=0.5;exitDx=0;exitDy=0;" edge="1" parent="WIyWlLk6GJQsqaUBKTNV-1" source="HXH-O_uExGK2S-_WwO7n-246" target="HXH-O_uExGK2S-_WwO7n-382">
          <mxGeometry relative="1" as="geometry">
            <mxPoint x="570" y="190" as="sourcePoint" />
            <mxPoint x="850" y="96" as="targetPoint" />
            <Array as="points">
              <mxPoint x="570" y="206" />
              <mxPoint x="660" y="206" />
              <mxPoint x="660" y="96" />
            </Array>
          </mxGeometry>
        </mxCell>
        <mxCell id="HXH-O_uExGK2S-_WwO7n-412" style="edgeStyle=orthogonalEdgeStyle;rounded=0;orthogonalLoop=1;jettySize=auto;html=1;entryX=-0.015;entryY=0.922;entryDx=0;entryDy=0;entryPerimeter=0;" edge="1" parent="WIyWlLk6GJQsqaUBKTNV-1" source="HXH-O_uExGK2S-_WwO7n-248" target="HXH-O_uExGK2S-_WwO7n-414">
          <mxGeometry relative="1" as="geometry">
            <mxPoint x="670" y="227" as="targetPoint" />
          </mxGeometry>
        </mxCell>
        <mxCell id="HXH-O_uExGK2S-_WwO7n-413" value="Campos" style="swimlane;fontStyle=0;childLayout=stackLayout;horizontal=1;startSize=26;horizontalStack=0;resizeParent=1;resizeParentMax=0;resizeLast=0;collapsible=1;marginBottom=0;align=center;fontSize=14;" vertex="1" parent="WIyWlLk6GJQsqaUBKTNV-1">
          <mxGeometry x="710" y="173" width="160" height="86" as="geometry">
            <mxRectangle x="650" y="-150" width="90" height="30" as="alternateBounds" />
          </mxGeometry>
        </mxCell>
        <mxCell id="HXH-O_uExGK2S-_WwO7n-414" value="email: String" style="text;strokeColor=none;fillColor=none;spacingLeft=4;spacingRight=4;overflow=hidden;rotatable=0;points=[[0,0.5],[1,0.5]];portConstraint=eastwest;fontSize=12;whiteSpace=wrap;html=1;" vertex="1" parent="HXH-O_uExGK2S-_WwO7n-413">
          <mxGeometry y="26" width="160" height="30" as="geometry" />
        </mxCell>
        <mxCell id="HXH-O_uExGK2S-_WwO7n-415" value="token: String" style="text;strokeColor=none;fillColor=none;spacingLeft=4;spacingRight=4;overflow=hidden;rotatable=0;points=[[0,0.5],[1,0.5]];portConstraint=eastwest;fontSize=12;whiteSpace=wrap;html=1;" vertex="1" parent="HXH-O_uExGK2S-_WwO7n-413">
          <mxGeometry y="56" width="160" height="30" as="geometry" />
        </mxCell>
        <mxCell id="HXH-O_uExGK2S-_WwO7n-417" value="Campos" style="swimlane;fontStyle=0;childLayout=stackLayout;horizontal=1;startSize=26;horizontalStack=0;resizeParent=1;resizeParentMax=0;resizeLast=0;collapsible=1;marginBottom=0;align=center;fontSize=14;" vertex="1" parent="WIyWlLk6GJQsqaUBKTNV-1">
          <mxGeometry x="940" y="236" width="160" height="296" as="geometry">
            <mxRectangle x="650" y="-150" width="90" height="30" as="alternateBounds" />
          </mxGeometry>
        </mxCell>
        <mxCell id="HXH-O_uExGK2S-_WwO7n-418" value="id: String" style="text;strokeColor=none;fillColor=none;spacingLeft=4;spacingRight=4;overflow=hidden;rotatable=0;points=[[0,0.5],[1,0.5]];portConstraint=eastwest;fontSize=12;whiteSpace=wrap;html=1;" vertex="1" parent="HXH-O_uExGK2S-_WwO7n-417">
          <mxGeometry y="26" width="160" height="30" as="geometry" />
        </mxCell>
        <mxCell id="HXH-O_uExGK2S-_WwO7n-419" value="name: String&lt;table&gt;&lt;tbody&gt;&lt;tr&gt;&lt;td&gt;&lt;br&gt;&lt;/td&gt;&lt;/tr&gt;&lt;tr&gt;&lt;td&gt;&lt;br&gt;&lt;/td&gt;&lt;/tr&gt;&lt;/tbody&gt;&lt;/table&gt;" style="text;strokeColor=none;fillColor=none;spacingLeft=4;spacingRight=4;overflow=hidden;rotatable=0;points=[[0,0.5],[1,0.5]];portConstraint=eastwest;fontSize=12;whiteSpace=wrap;html=1;" vertex="1" parent="HXH-O_uExGK2S-_WwO7n-417">
          <mxGeometry y="56" width="160" height="30" as="geometry" />
        </mxCell>
        <mxCell id="HXH-O_uExGK2S-_WwO7n-420" value="email: String" style="text;strokeColor=none;fillColor=none;spacingLeft=4;spacingRight=4;overflow=hidden;rotatable=0;points=[[0,0.5],[1,0.5]];portConstraint=eastwest;fontSize=12;whiteSpace=wrap;html=1;" vertex="1" parent="HXH-O_uExGK2S-_WwO7n-417">
          <mxGeometry y="86" width="160" height="30" as="geometry" />
        </mxCell>
        <mxCell id="HXH-O_uExGK2S-_WwO7n-422" value="phones: List&amp;lt;Phones&amp;gt;" style="text;strokeColor=none;fillColor=none;spacingLeft=4;spacingRight=4;overflow=hidden;rotatable=0;points=[[0,0.5],[1,0.5]];portConstraint=eastwest;fontSize=12;whiteSpace=wrap;html=1;" vertex="1" parent="HXH-O_uExGK2S-_WwO7n-417">
          <mxGeometry y="116" width="160" height="30" as="geometry" />
        </mxCell>
        <mxCell id="HXH-O_uExGK2S-_WwO7n-423" value="created: Date" style="text;strokeColor=none;fillColor=none;spacingLeft=4;spacingRight=4;overflow=hidden;rotatable=0;points=[[0,0.5],[1,0.5]];portConstraint=eastwest;fontSize=12;whiteSpace=wrap;html=1;" vertex="1" parent="HXH-O_uExGK2S-_WwO7n-417">
          <mxGeometry y="146" width="160" height="30" as="geometry" />
        </mxCell>
        <mxCell id="HXH-O_uExGK2S-_WwO7n-424" value="modified: Date" style="text;strokeColor=none;fillColor=none;spacingLeft=4;spacingRight=4;overflow=hidden;rotatable=0;points=[[0,0.5],[1,0.5]];portConstraint=eastwest;fontSize=12;whiteSpace=wrap;html=1;" vertex="1" parent="HXH-O_uExGK2S-_WwO7n-417">
          <mxGeometry y="176" width="160" height="30" as="geometry" />
        </mxCell>
        <mxCell id="HXH-O_uExGK2S-_WwO7n-425" value="last_login: Date" style="text;strokeColor=none;fillColor=none;spacingLeft=4;spacingRight=4;overflow=hidden;rotatable=0;points=[[0,0.5],[1,0.5]];portConstraint=eastwest;fontSize=12;whiteSpace=wrap;html=1;" vertex="1" parent="HXH-O_uExGK2S-_WwO7n-417">
          <mxGeometry y="206" width="160" height="30" as="geometry" />
        </mxCell>
        <mxCell id="HXH-O_uExGK2S-_WwO7n-426" value="token: String" style="text;strokeColor=none;fillColor=none;spacingLeft=4;spacingRight=4;overflow=hidden;rotatable=0;points=[[0,0.5],[1,0.5]];portConstraint=eastwest;fontSize=12;whiteSpace=wrap;html=1;" vertex="1" parent="HXH-O_uExGK2S-_WwO7n-417">
          <mxGeometry y="236" width="160" height="30" as="geometry" />
        </mxCell>
        <mxCell id="HXH-O_uExGK2S-_WwO7n-427" value="isactive: boolean" style="text;strokeColor=none;fillColor=none;spacingLeft=4;spacingRight=4;overflow=hidden;rotatable=0;points=[[0,0.5],[1,0.5]];portConstraint=eastwest;fontSize=12;whiteSpace=wrap;html=1;" vertex="1" parent="HXH-O_uExGK2S-_WwO7n-417">
          <mxGeometry y="266" width="160" height="30" as="geometry" />
        </mxCell>
        <mxCell id="HXH-O_uExGK2S-_WwO7n-429" style="edgeStyle=orthogonalEdgeStyle;rounded=0;orthogonalLoop=1;jettySize=auto;html=1;entryX=0;entryY=0.5;entryDx=0;entryDy=0;" edge="1" parent="WIyWlLk6GJQsqaUBKTNV-1" source="HXH-O_uExGK2S-_WwO7n-250" target="HXH-O_uExGK2S-_WwO7n-418">
          <mxGeometry relative="1" as="geometry">
            <mxPoint x="850" y="296" as="targetPoint" />
            <Array as="points">
              <mxPoint x="700" y="246" />
              <mxPoint x="700" y="277" />
            </Array>
          </mxGeometry>
        </mxCell>
        <mxCell id="HXH-O_uExGK2S-_WwO7n-430" value="Campos" style="swimlane;fontStyle=0;childLayout=stackLayout;horizontal=1;startSize=26;horizontalStack=0;resizeParent=1;resizeParentMax=0;resizeLast=0;collapsible=1;marginBottom=0;align=center;fontSize=14;" vertex="1" parent="WIyWlLk6GJQsqaUBKTNV-1">
          <mxGeometry x="760" y="295" width="160" height="206" as="geometry">
            <mxRectangle x="650" y="-150" width="90" height="30" as="alternateBounds" />
          </mxGeometry>
        </mxCell>
        <mxCell id="HXH-O_uExGK2S-_WwO7n-431" value="id: String" style="text;strokeColor=none;fillColor=none;spacingLeft=4;spacingRight=4;overflow=hidden;rotatable=0;points=[[0,0.5],[1,0.5]];portConstraint=eastwest;fontSize=12;whiteSpace=wrap;html=1;" vertex="1" parent="HXH-O_uExGK2S-_WwO7n-430">
          <mxGeometry y="26" width="160" height="30" as="geometry" />
        </mxCell>
        <mxCell id="HXH-O_uExGK2S-_WwO7n-435" value="created: Date" style="text;strokeColor=none;fillColor=none;spacingLeft=4;spacingRight=4;overflow=hidden;rotatable=0;points=[[0,0.5],[1,0.5]];portConstraint=eastwest;fontSize=12;whiteSpace=wrap;html=1;" vertex="1" parent="HXH-O_uExGK2S-_WwO7n-430">
          <mxGeometry y="56" width="160" height="30" as="geometry" />
        </mxCell>
        <mxCell id="HXH-O_uExGK2S-_WwO7n-436" value="modified: Date" style="text;strokeColor=none;fillColor=none;spacingLeft=4;spacingRight=4;overflow=hidden;rotatable=0;points=[[0,0.5],[1,0.5]];portConstraint=eastwest;fontSize=12;whiteSpace=wrap;html=1;" vertex="1" parent="HXH-O_uExGK2S-_WwO7n-430">
          <mxGeometry y="86" width="160" height="30" as="geometry" />
        </mxCell>
        <mxCell id="HXH-O_uExGK2S-_WwO7n-437" value="last_login: Date" style="text;strokeColor=none;fillColor=none;spacingLeft=4;spacingRight=4;overflow=hidden;rotatable=0;points=[[0,0.5],[1,0.5]];portConstraint=eastwest;fontSize=12;whiteSpace=wrap;html=1;" vertex="1" parent="HXH-O_uExGK2S-_WwO7n-430">
          <mxGeometry y="116" width="160" height="30" as="geometry" />
        </mxCell>
        <mxCell id="HXH-O_uExGK2S-_WwO7n-438" value="token: String" style="text;strokeColor=none;fillColor=none;spacingLeft=4;spacingRight=4;overflow=hidden;rotatable=0;points=[[0,0.5],[1,0.5]];portConstraint=eastwest;fontSize=12;whiteSpace=wrap;html=1;" vertex="1" parent="HXH-O_uExGK2S-_WwO7n-430">
          <mxGeometry y="146" width="160" height="30" as="geometry" />
        </mxCell>
        <mxCell id="HXH-O_uExGK2S-_WwO7n-439" value="isactive: boolean" style="text;strokeColor=none;fillColor=none;spacingLeft=4;spacingRight=4;overflow=hidden;rotatable=0;points=[[0,0.5],[1,0.5]];portConstraint=eastwest;fontSize=12;whiteSpace=wrap;html=1;" vertex="1" parent="HXH-O_uExGK2S-_WwO7n-430">
          <mxGeometry y="176" width="160" height="30" as="geometry" />
        </mxCell>
        <mxCell id="HXH-O_uExGK2S-_WwO7n-440" style="edgeStyle=orthogonalEdgeStyle;rounded=0;orthogonalLoop=1;jettySize=auto;html=1;entryX=-0.002;entryY=0.039;entryDx=0;entryDy=0;entryPerimeter=0;" edge="1" parent="WIyWlLk6GJQsqaUBKTNV-1" source="HXH-O_uExGK2S-_WwO7n-252" target="HXH-O_uExGK2S-_WwO7n-430">
          <mxGeometry relative="1" as="geometry">
            <Array as="points">
              <mxPoint x="690" y="265" />
              <mxPoint x="690" y="303" />
            </Array>
          </mxGeometry>
        </mxCell>
        <mxCell id="HXH-O_uExGK2S-_WwO7n-441" style="edgeStyle=orthogonalEdgeStyle;rounded=0;orthogonalLoop=1;jettySize=auto;html=1;entryX=0.316;entryY=-0.012;entryDx=0;entryDy=0;entryPerimeter=0;" edge="1" parent="WIyWlLk6GJQsqaUBKTNV-1" source="HXH-O_uExGK2S-_WwO7n-254" target="HXH-O_uExGK2S-_WwO7n-442">
          <mxGeometry relative="1" as="geometry">
            <mxPoint x="610" y="386" as="targetPoint" />
          </mxGeometry>
        </mxCell>
        <mxCell id="HXH-O_uExGK2S-_WwO7n-442" value="Campos" style="swimlane;fontStyle=0;childLayout=stackLayout;horizontal=1;startSize=26;horizontalStack=0;resizeParent=1;resizeParentMax=0;resizeLast=0;collapsible=1;marginBottom=0;align=center;fontSize=14;" vertex="1" parent="WIyWlLk6GJQsqaUBKTNV-1">
          <mxGeometry x="650" y="328" width="100" height="86" as="geometry">
            <mxRectangle x="650" y="-150" width="90" height="30" as="alternateBounds" />
          </mxGeometry>
        </mxCell>
        <mxCell id="HXH-O_uExGK2S-_WwO7n-443" value="mensaje: String" style="text;strokeColor=none;fillColor=none;spacingLeft=4;spacingRight=4;overflow=hidden;rotatable=0;points=[[0,0.5],[1,0.5]];portConstraint=eastwest;fontSize=12;whiteSpace=wrap;html=1;" vertex="1" parent="HXH-O_uExGK2S-_WwO7n-442">
          <mxGeometry y="26" width="100" height="30" as="geometry" />
        </mxCell>
        <mxCell id="HXH-O_uExGK2S-_WwO7n-444" value="data: Object" style="text;strokeColor=none;fillColor=none;spacingLeft=4;spacingRight=4;overflow=hidden;rotatable=0;points=[[0,0.5],[1,0.5]];portConstraint=eastwest;fontSize=12;whiteSpace=wrap;html=1;" vertex="1" parent="HXH-O_uExGK2S-_WwO7n-442">
          <mxGeometry y="56" width="100" height="30" as="geometry" />
        </mxCell>
        <mxCell id="HXH-O_uExGK2S-_WwO7n-459" style="edgeStyle=orthogonalEdgeStyle;rounded=0;orthogonalLoop=1;jettySize=auto;html=1;entryX=0;entryY=0.5;entryDx=0;entryDy=0;" edge="1" parent="WIyWlLk6GJQsqaUBKTNV-1" source="HXH-O_uExGK2S-_WwO7n-446" target="HXH-O_uExGK2S-_WwO7n-165">
          <mxGeometry relative="1" as="geometry" />
        </mxCell>
        <mxCell id="HXH-O_uExGK2S-_WwO7n-460" style="edgeStyle=orthogonalEdgeStyle;rounded=0;orthogonalLoop=1;jettySize=auto;html=1;entryX=0;entryY=0.5;entryDx=0;entryDy=0;" edge="1" parent="WIyWlLk6GJQsqaUBKTNV-1" source="HXH-O_uExGK2S-_WwO7n-447" target="HXH-O_uExGK2S-_WwO7n-165">
          <mxGeometry relative="1" as="geometry" />
        </mxCell>
        <mxCell id="HXH-O_uExGK2S-_WwO7n-472" style="edgeStyle=orthogonalEdgeStyle;rounded=0;orthogonalLoop=1;jettySize=auto;html=1;entryX=0.5;entryY=0;entryDx=0;entryDy=0;" edge="1" parent="WIyWlLk6GJQsqaUBKTNV-1" source="HXH-O_uExGK2S-_WwO7n-461" target="HXH-O_uExGK2S-_WwO7n-621">
          <mxGeometry relative="1" as="geometry">
            <mxPoint x="333.75" y="1030" as="targetPoint" />
            <Array as="points" />
          </mxGeometry>
        </mxCell>
        <mxCell id="HXH-O_uExGK2S-_WwO7n-461" value="Request&lt;br style=&quot;border-color: var(--border-color);&quot;&gt;/users" style="ellipse;whiteSpace=wrap;html=1;" vertex="1" parent="WIyWlLk6GJQsqaUBKTNV-1">
          <mxGeometry x="293.75" y="970" width="90" height="40" as="geometry" />
        </mxCell>
        <mxCell id="HXH-O_uExGK2S-_WwO7n-485" style="edgeStyle=orthogonalEdgeStyle;rounded=0;orthogonalLoop=1;jettySize=auto;html=1;" edge="1" parent="WIyWlLk6GJQsqaUBKTNV-1" target="HXH-O_uExGK2S-_WwO7n-484">
          <mxGeometry relative="1" as="geometry">
            <mxPoint x="338.75" y="1105" as="sourcePoint" />
            <Array as="points">
              <mxPoint x="338.75" y="1120" />
              <mxPoint x="-246.25" y="1120" />
            </Array>
          </mxGeometry>
        </mxCell>
        <mxCell id="HXH-O_uExGK2S-_WwO7n-498" value="/create" style="edgeLabel;html=1;align=center;verticalAlign=middle;resizable=0;points=[];" vertex="1" connectable="0" parent="HXH-O_uExGK2S-_WwO7n-485">
          <mxGeometry x="0.9192" relative="1" as="geometry">
            <mxPoint as="offset" />
          </mxGeometry>
        </mxCell>
        <mxCell id="HXH-O_uExGK2S-_WwO7n-486" style="edgeStyle=orthogonalEdgeStyle;rounded=0;orthogonalLoop=1;jettySize=auto;html=1;" edge="1" parent="WIyWlLk6GJQsqaUBKTNV-1" target="HXH-O_uExGK2S-_WwO7n-475">
          <mxGeometry relative="1" as="geometry">
            <mxPoint x="338.75" y="1105" as="sourcePoint" />
            <Array as="points">
              <mxPoint x="338.75" y="1120" />
              <mxPoint x="-116.25" y="1120" />
            </Array>
          </mxGeometry>
        </mxCell>
        <mxCell id="HXH-O_uExGK2S-_WwO7n-499" value="/get/email?email=" style="edgeLabel;html=1;align=center;verticalAlign=middle;resizable=0;points=[];" vertex="1" connectable="0" parent="HXH-O_uExGK2S-_WwO7n-486">
          <mxGeometry x="0.9" relative="1" as="geometry">
            <mxPoint as="offset" />
          </mxGeometry>
        </mxCell>
        <mxCell id="HXH-O_uExGK2S-_WwO7n-487" style="edgeStyle=orthogonalEdgeStyle;rounded=0;orthogonalLoop=1;jettySize=auto;html=1;" edge="1" parent="WIyWlLk6GJQsqaUBKTNV-1" target="HXH-O_uExGK2S-_WwO7n-474">
          <mxGeometry relative="1" as="geometry">
            <mxPoint x="338.75" y="1105" as="sourcePoint" />
            <Array as="points">
              <mxPoint x="338.75" y="1120" />
              <mxPoint x="13.75" y="1120" />
            </Array>
          </mxGeometry>
        </mxCell>
        <mxCell id="HXH-O_uExGK2S-_WwO7n-501" value="/get/id?id=" style="edgeLabel;html=1;align=center;verticalAlign=middle;resizable=0;points=[];" vertex="1" connectable="0" parent="HXH-O_uExGK2S-_WwO7n-487">
          <mxGeometry x="0.8631" y="1" relative="1" as="geometry">
            <mxPoint x="-1" as="offset" />
          </mxGeometry>
        </mxCell>
        <mxCell id="HXH-O_uExGK2S-_WwO7n-488" style="edgeStyle=orthogonalEdgeStyle;rounded=0;orthogonalLoop=1;jettySize=auto;html=1;" edge="1" parent="WIyWlLk6GJQsqaUBKTNV-1" target="HXH-O_uExGK2S-_WwO7n-473">
          <mxGeometry relative="1" as="geometry">
            <mxPoint x="338.75" y="1105" as="sourcePoint" />
            <Array as="points">
              <mxPoint x="338.75" y="1120" />
              <mxPoint x="143.75" y="1120" />
            </Array>
          </mxGeometry>
        </mxCell>
        <mxCell id="HXH-O_uExGK2S-_WwO7n-502" value="/get/all" style="edgeLabel;html=1;align=center;verticalAlign=middle;resizable=0;points=[];" vertex="1" connectable="0" parent="HXH-O_uExGK2S-_WwO7n-488">
          <mxGeometry x="0.7973" y="-1" relative="1" as="geometry">
            <mxPoint as="offset" />
          </mxGeometry>
        </mxCell>
        <mxCell id="HXH-O_uExGK2S-_WwO7n-491" style="edgeStyle=orthogonalEdgeStyle;rounded=0;orthogonalLoop=1;jettySize=auto;html=1;entryX=0.458;entryY=0;entryDx=0;entryDy=0;entryPerimeter=0;" edge="1" parent="WIyWlLk6GJQsqaUBKTNV-1" target="HXH-O_uExGK2S-_WwO7n-478">
          <mxGeometry relative="1" as="geometry">
            <mxPoint x="338.75" y="1105" as="sourcePoint" />
            <Array as="points">
              <mxPoint x="338.75" y="1120" />
              <mxPoint x="268.75" y="1120" />
            </Array>
          </mxGeometry>
        </mxCell>
        <mxCell id="HXH-O_uExGK2S-_WwO7n-503" value="/edit?currentEmail=" style="edgeLabel;html=1;align=center;verticalAlign=middle;resizable=0;points=[];" vertex="1" connectable="0" parent="HXH-O_uExGK2S-_WwO7n-491">
          <mxGeometry x="0.5861" y="1" relative="1" as="geometry">
            <mxPoint as="offset" />
          </mxGeometry>
        </mxCell>
        <mxCell id="HXH-O_uExGK2S-_WwO7n-492" style="edgeStyle=orthogonalEdgeStyle;rounded=0;orthogonalLoop=1;jettySize=auto;html=1;" edge="1" parent="WIyWlLk6GJQsqaUBKTNV-1" target="HXH-O_uExGK2S-_WwO7n-480">
          <mxGeometry relative="1" as="geometry">
            <mxPoint x="338.75" y="1105" as="sourcePoint" />
            <Array as="points">
              <mxPoint x="338.75" y="1120" />
              <mxPoint x="403.75" y="1120" />
            </Array>
          </mxGeometry>
        </mxCell>
        <mxCell id="HXH-O_uExGK2S-_WwO7n-504" value="/delete/email?email=" style="edgeLabel;html=1;align=center;verticalAlign=middle;resizable=0;points=[];" vertex="1" connectable="0" parent="HXH-O_uExGK2S-_WwO7n-492">
          <mxGeometry x="0.5681" y="-2" relative="1" as="geometry">
            <mxPoint as="offset" />
          </mxGeometry>
        </mxCell>
        <mxCell id="HXH-O_uExGK2S-_WwO7n-493" style="edgeStyle=orthogonalEdgeStyle;rounded=0;orthogonalLoop=1;jettySize=auto;html=1;entryX=0.452;entryY=-0.004;entryDx=0;entryDy=0;entryPerimeter=0;" edge="1" parent="WIyWlLk6GJQsqaUBKTNV-1" target="HXH-O_uExGK2S-_WwO7n-569">
          <mxGeometry relative="1" as="geometry">
            <mxPoint x="338.75" y="1105" as="sourcePoint" />
            <mxPoint x="525.75" y="1160" as="targetPoint" />
            <Array as="points">
              <mxPoint x="338.75" y="1120" />
              <mxPoint x="532.75" y="1120" />
            </Array>
          </mxGeometry>
        </mxCell>
        <mxCell id="HXH-O_uExGK2S-_WwO7n-505" value="/delete/id?id=" style="edgeLabel;html=1;align=center;verticalAlign=middle;resizable=0;points=[];" vertex="1" connectable="0" parent="HXH-O_uExGK2S-_WwO7n-493">
          <mxGeometry x="0.8007" y="-2" relative="1" as="geometry">
            <mxPoint as="offset" />
          </mxGeometry>
        </mxCell>
        <mxCell id="HXH-O_uExGK2S-_WwO7n-494" style="edgeStyle=orthogonalEdgeStyle;rounded=0;orthogonalLoop=1;jettySize=auto;html=1;" edge="1" parent="WIyWlLk6GJQsqaUBKTNV-1" target="HXH-O_uExGK2S-_WwO7n-479">
          <mxGeometry relative="1" as="geometry">
            <mxPoint x="338.75" y="1105" as="sourcePoint" />
            <Array as="points">
              <mxPoint x="338.75" y="1120" />
              <mxPoint x="663.75" y="1120" />
            </Array>
          </mxGeometry>
        </mxCell>
        <mxCell id="HXH-O_uExGK2S-_WwO7n-506" value="/login" style="edgeLabel;html=1;align=center;verticalAlign=middle;resizable=0;points=[];" vertex="1" connectable="0" parent="HXH-O_uExGK2S-_WwO7n-494">
          <mxGeometry x="0.8587" y="1" relative="1" as="geometry">
            <mxPoint as="offset" />
          </mxGeometry>
        </mxCell>
        <mxCell id="HXH-O_uExGK2S-_WwO7n-495" style="edgeStyle=orthogonalEdgeStyle;rounded=0;orthogonalLoop=1;jettySize=auto;html=1;" edge="1" parent="WIyWlLk6GJQsqaUBKTNV-1" target="HXH-O_uExGK2S-_WwO7n-482">
          <mxGeometry relative="1" as="geometry">
            <mxPoint x="338.75" y="1105" as="sourcePoint" />
            <Array as="points">
              <mxPoint x="338.75" y="1120" />
              <mxPoint x="793.75" y="1120" />
            </Array>
          </mxGeometry>
        </mxCell>
        <mxCell id="HXH-O_uExGK2S-_WwO7n-507" value="/logout" style="edgeLabel;html=1;align=center;verticalAlign=middle;resizable=0;points=[];" vertex="1" connectable="0" parent="HXH-O_uExGK2S-_WwO7n-495">
          <mxGeometry x="0.895" y="-2" relative="1" as="geometry">
            <mxPoint as="offset" />
          </mxGeometry>
        </mxCell>
        <mxCell id="HXH-O_uExGK2S-_WwO7n-496" style="edgeStyle=orthogonalEdgeStyle;rounded=0;orthogonalLoop=1;jettySize=auto;html=1;entryX=0.5;entryY=0;entryDx=0;entryDy=0;exitX=0.5;exitY=1;exitDx=0;exitDy=0;" edge="1" parent="WIyWlLk6GJQsqaUBKTNV-1" source="HXH-O_uExGK2S-_WwO7n-621" target="HXH-O_uExGK2S-_WwO7n-483">
          <mxGeometry relative="1" as="geometry">
            <mxPoint x="338.75" y="1105" as="sourcePoint" />
            <Array as="points">
              <mxPoint x="338.75" y="1120" />
              <mxPoint x="923.75" y="1120" />
            </Array>
          </mxGeometry>
        </mxCell>
        <mxCell id="HXH-O_uExGK2S-_WwO7n-509" value="/validate/token" style="edgeLabel;html=1;align=center;verticalAlign=middle;resizable=0;points=[];" vertex="1" connectable="0" parent="HXH-O_uExGK2S-_WwO7n-496">
          <mxGeometry x="0.9218" y="1" relative="1" as="geometry">
            <mxPoint as="offset" />
          </mxGeometry>
        </mxCell>
        <mxCell id="HXH-O_uExGK2S-_WwO7n-625" style="edgeStyle=orthogonalEdgeStyle;rounded=0;orthogonalLoop=1;jettySize=auto;html=1;entryX=0.5;entryY=0;entryDx=0;entryDy=0;" edge="1" parent="WIyWlLk6GJQsqaUBKTNV-1" source="HXH-O_uExGK2S-_WwO7n-473" target="HXH-O_uExGK2S-_WwO7n-583">
          <mxGeometry relative="1" as="geometry" />
        </mxCell>
        <mxCell id="HXH-O_uExGK2S-_WwO7n-473" value="No RequestParams&lt;br&gt;No RequestBody" style="rounded=0;whiteSpace=wrap;html=1;fontSize=11;" vertex="1" parent="WIyWlLk6GJQsqaUBKTNV-1">
          <mxGeometry x="83.75" y="1160" width="120" height="70" as="geometry" />
        </mxCell>
        <mxCell id="HXH-O_uExGK2S-_WwO7n-624" style="edgeStyle=orthogonalEdgeStyle;rounded=0;orthogonalLoop=1;jettySize=auto;html=1;entryX=0.5;entryY=0;entryDx=0;entryDy=0;" edge="1" parent="WIyWlLk6GJQsqaUBKTNV-1" source="HXH-O_uExGK2S-_WwO7n-474" target="HXH-O_uExGK2S-_WwO7n-584">
          <mxGeometry relative="1" as="geometry" />
        </mxCell>
        <mxCell id="HXH-O_uExGK2S-_WwO7n-474" value="RequestParam:&lt;br style=&quot;border-color: var(--border-color); font-size: 11px;&quot;&gt;id: String" style="rounded=0;whiteSpace=wrap;html=1;fontSize=11;" vertex="1" parent="WIyWlLk6GJQsqaUBKTNV-1">
          <mxGeometry x="-46.25" y="1160" width="120" height="70" as="geometry" />
        </mxCell>
        <mxCell id="HXH-O_uExGK2S-_WwO7n-623" style="edgeStyle=orthogonalEdgeStyle;rounded=0;orthogonalLoop=1;jettySize=auto;html=1;entryX=0.5;entryY=0;entryDx=0;entryDy=0;" edge="1" parent="WIyWlLk6GJQsqaUBKTNV-1" source="HXH-O_uExGK2S-_WwO7n-475" target="HXH-O_uExGK2S-_WwO7n-585">
          <mxGeometry relative="1" as="geometry" />
        </mxCell>
        <mxCell id="HXH-O_uExGK2S-_WwO7n-475" value="RequestParam:&lt;br style=&quot;font-size: 11px;&quot;&gt;email: String" style="rounded=0;whiteSpace=wrap;html=1;fontSize=11;" vertex="1" parent="WIyWlLk6GJQsqaUBKTNV-1">
          <mxGeometry x="-176.25" y="1160" width="120" height="70" as="geometry" />
        </mxCell>
        <mxCell id="HXH-O_uExGK2S-_WwO7n-626" style="edgeStyle=orthogonalEdgeStyle;rounded=0;orthogonalLoop=1;jettySize=auto;html=1;" edge="1" parent="WIyWlLk6GJQsqaUBKTNV-1" source="HXH-O_uExGK2S-_WwO7n-478" target="HXH-O_uExGK2S-_WwO7n-586">
          <mxGeometry relative="1" as="geometry" />
        </mxCell>
        <mxCell id="HXH-O_uExGK2S-_WwO7n-478" value="RequestParam:&lt;br style=&quot;border-color: var(--border-color);&quot;&gt;currentEmail: String&lt;br style=&quot;border-color: var(--border-color);&quot;&gt;&lt;hr style=&quot;border-color: var(--border-color);&quot;&gt;RequestBody:&lt;br style=&quot;border-color: var(--border-color);&quot;&gt;RequestUserModel" style="rounded=0;whiteSpace=wrap;html=1;fontSize=11;" vertex="1" parent="WIyWlLk6GJQsqaUBKTNV-1">
          <mxGeometry x="213.75" y="1160" width="120" height="70" as="geometry" />
        </mxCell>
        <mxCell id="HXH-O_uExGK2S-_WwO7n-629" style="edgeStyle=orthogonalEdgeStyle;rounded=0;orthogonalLoop=1;jettySize=auto;html=1;entryX=0.5;entryY=0;entryDx=0;entryDy=0;" edge="1" parent="WIyWlLk6GJQsqaUBKTNV-1" source="HXH-O_uExGK2S-_WwO7n-479" target="HXH-O_uExGK2S-_WwO7n-587">
          <mxGeometry relative="1" as="geometry" />
        </mxCell>
        <mxCell id="HXH-O_uExGK2S-_WwO7n-479" value="RequestBody:&amp;nbsp;&lt;br style=&quot;border-color: var(--border-color); font-size: 11px;&quot;&gt;RequestLoginModel" style="rounded=0;whiteSpace=wrap;html=1;fontSize=11;" vertex="1" parent="WIyWlLk6GJQsqaUBKTNV-1">
          <mxGeometry x="608.75" y="1160" width="115" height="70" as="geometry" />
        </mxCell>
        <mxCell id="HXH-O_uExGK2S-_WwO7n-627" style="edgeStyle=orthogonalEdgeStyle;rounded=0;orthogonalLoop=1;jettySize=auto;html=1;entryX=0.5;entryY=0;entryDx=0;entryDy=0;" edge="1" parent="WIyWlLk6GJQsqaUBKTNV-1" source="HXH-O_uExGK2S-_WwO7n-480" target="HXH-O_uExGK2S-_WwO7n-588">
          <mxGeometry relative="1" as="geometry" />
        </mxCell>
        <mxCell id="HXH-O_uExGK2S-_WwO7n-480" value="RequestParam:&lt;br style=&quot;border-color: var(--border-color); font-size: 11px;&quot;&gt;email: String" style="rounded=0;whiteSpace=wrap;html=1;fontSize=11;" vertex="1" parent="WIyWlLk6GJQsqaUBKTNV-1">
          <mxGeometry x="345.75" y="1160" width="120" height="70" as="geometry" />
        </mxCell>
        <mxCell id="HXH-O_uExGK2S-_WwO7n-630" style="edgeStyle=orthogonalEdgeStyle;rounded=0;orthogonalLoop=1;jettySize=auto;html=1;entryX=0.5;entryY=0;entryDx=0;entryDy=0;" edge="1" parent="WIyWlLk6GJQsqaUBKTNV-1" source="HXH-O_uExGK2S-_WwO7n-482" target="HXH-O_uExGK2S-_WwO7n-589">
          <mxGeometry relative="1" as="geometry" />
        </mxCell>
        <mxCell id="HXH-O_uExGK2S-_WwO7n-482" value="RequestBody:&amp;nbsp;&lt;br style=&quot;border-color: var(--border-color); font-size: 11px;&quot;&gt;RequestValidateModel" style="rounded=0;whiteSpace=wrap;html=1;fontSize=11;" vertex="1" parent="WIyWlLk6GJQsqaUBKTNV-1">
          <mxGeometry x="733.75" y="1160" width="120" height="70" as="geometry" />
        </mxCell>
        <mxCell id="HXH-O_uExGK2S-_WwO7n-631" style="edgeStyle=orthogonalEdgeStyle;rounded=0;orthogonalLoop=1;jettySize=auto;html=1;entryX=0.5;entryY=0;entryDx=0;entryDy=0;" edge="1" parent="WIyWlLk6GJQsqaUBKTNV-1" source="HXH-O_uExGK2S-_WwO7n-483" target="HXH-O_uExGK2S-_WwO7n-590">
          <mxGeometry relative="1" as="geometry" />
        </mxCell>
        <mxCell id="HXH-O_uExGK2S-_WwO7n-483" value="RequestBody:&amp;nbsp;&lt;br style=&quot;border-color: var(--border-color);&quot;&gt;RequestValidateModel" style="rounded=0;whiteSpace=wrap;html=1;fontSize=11;" vertex="1" parent="WIyWlLk6GJQsqaUBKTNV-1">
          <mxGeometry x="863.75" y="1160" width="120" height="70" as="geometry" />
        </mxCell>
        <mxCell id="HXH-O_uExGK2S-_WwO7n-622" style="edgeStyle=orthogonalEdgeStyle;rounded=0;orthogonalLoop=1;jettySize=auto;html=1;entryX=0.5;entryY=0;entryDx=0;entryDy=0;" edge="1" parent="WIyWlLk6GJQsqaUBKTNV-1" source="HXH-O_uExGK2S-_WwO7n-484" target="HXH-O_uExGK2S-_WwO7n-591">
          <mxGeometry relative="1" as="geometry" />
        </mxCell>
        <mxCell id="HXH-O_uExGK2S-_WwO7n-484" value="RequestBody:&amp;nbsp;&lt;br style=&quot;font-size: 11px;&quot;&gt;RequestUserModel" style="rounded=0;whiteSpace=wrap;html=1;fontSize=11;" vertex="1" parent="WIyWlLk6GJQsqaUBKTNV-1">
          <mxGeometry x="-306.25" y="1160" width="120" height="70" as="geometry" />
        </mxCell>
        <mxCell id="HXH-O_uExGK2S-_WwO7n-628" style="edgeStyle=orthogonalEdgeStyle;rounded=0;orthogonalLoop=1;jettySize=auto;html=1;entryX=0.5;entryY=0;entryDx=0;entryDy=0;" edge="1" parent="WIyWlLk6GJQsqaUBKTNV-1" source="HXH-O_uExGK2S-_WwO7n-569" target="HXH-O_uExGK2S-_WwO7n-608">
          <mxGeometry relative="1" as="geometry" />
        </mxCell>
        <mxCell id="HXH-O_uExGK2S-_WwO7n-569" value="RequestParam:&lt;br style=&quot;border-color: var(--border-color); font-size: 11px;&quot;&gt;id: String" style="rounded=0;whiteSpace=wrap;html=1;fontSize=11;" vertex="1" parent="WIyWlLk6GJQsqaUBKTNV-1">
          <mxGeometry x="478.75" y="1160" width="120" height="70" as="geometry" />
        </mxCell>
        <mxCell id="HXH-O_uExGK2S-_WwO7n-663" style="edgeStyle=orthogonalEdgeStyle;rounded=0;orthogonalLoop=1;jettySize=auto;html=1;" edge="1" parent="WIyWlLk6GJQsqaUBKTNV-1" source="HXH-O_uExGK2S-_WwO7n-583" target="HXH-O_uExGK2S-_WwO7n-664">
          <mxGeometry relative="1" as="geometry">
            <mxPoint x="143.75000000000023" y="1340" as="targetPoint" />
          </mxGeometry>
        </mxCell>
        <mxCell id="HXH-O_uExGK2S-_WwO7n-583" value="llamado al servicio:&lt;br&gt;getAll" style="rounded=0;whiteSpace=wrap;html=1;fontSize=11;" vertex="1" parent="WIyWlLk6GJQsqaUBKTNV-1">
          <mxGeometry x="83.75" y="1260" width="120" height="30" as="geometry" />
        </mxCell>
        <mxCell id="HXH-O_uExGK2S-_WwO7n-730" style="edgeStyle=orthogonalEdgeStyle;rounded=0;orthogonalLoop=1;jettySize=auto;html=1;" edge="1" parent="WIyWlLk6GJQsqaUBKTNV-1" source="HXH-O_uExGK2S-_WwO7n-584" target="HXH-O_uExGK2S-_WwO7n-727">
          <mxGeometry relative="1" as="geometry" />
        </mxCell>
        <mxCell id="HXH-O_uExGK2S-_WwO7n-584" value="llamado al servicio:&lt;br&gt;getUserById" style="rounded=0;whiteSpace=wrap;html=1;fontSize=11;" vertex="1" parent="WIyWlLk6GJQsqaUBKTNV-1">
          <mxGeometry x="-46.25" y="1260" width="120" height="30" as="geometry" />
        </mxCell>
        <mxCell id="HXH-O_uExGK2S-_WwO7n-743" style="edgeStyle=orthogonalEdgeStyle;rounded=0;orthogonalLoop=1;jettySize=auto;html=1;entryX=0.5;entryY=0;entryDx=0;entryDy=0;entryPerimeter=0;" edge="1" parent="WIyWlLk6GJQsqaUBKTNV-1" source="HXH-O_uExGK2S-_WwO7n-585" target="HXH-O_uExGK2S-_WwO7n-733">
          <mxGeometry relative="1" as="geometry" />
        </mxCell>
        <mxCell id="HXH-O_uExGK2S-_WwO7n-585" value="llamado al servicio:&lt;br&gt;getUserByMail" style="rounded=0;whiteSpace=wrap;html=1;fontSize=11;" vertex="1" parent="WIyWlLk6GJQsqaUBKTNV-1">
          <mxGeometry x="-176.25" y="1260" width="120" height="30" as="geometry" />
        </mxCell>
        <mxCell id="HXH-O_uExGK2S-_WwO7n-649" style="edgeStyle=orthogonalEdgeStyle;rounded=0;orthogonalLoop=1;jettySize=auto;html=1;entryX=0.5;entryY=0;entryDx=0;entryDy=0;entryPerimeter=0;" edge="1" parent="WIyWlLk6GJQsqaUBKTNV-1" source="HXH-O_uExGK2S-_WwO7n-586" target="HXH-O_uExGK2S-_WwO7n-647">
          <mxGeometry relative="1" as="geometry" />
        </mxCell>
        <mxCell id="HXH-O_uExGK2S-_WwO7n-586" value="Llamado al servicio:&lt;br&gt;edit" style="rounded=0;whiteSpace=wrap;html=1;fontSize=11;" vertex="1" parent="WIyWlLk6GJQsqaUBKTNV-1">
          <mxGeometry x="213.75" y="1260" width="120" height="30" as="geometry" />
        </mxCell>
        <mxCell id="HXH-O_uExGK2S-_WwO7n-685" style="edgeStyle=orthogonalEdgeStyle;rounded=0;orthogonalLoop=1;jettySize=auto;html=1;" edge="1" parent="WIyWlLk6GJQsqaUBKTNV-1" source="HXH-O_uExGK2S-_WwO7n-587" target="HXH-O_uExGK2S-_WwO7n-681">
          <mxGeometry relative="1" as="geometry">
            <Array as="points">
              <mxPoint x="662.75" y="1320" />
              <mxPoint x="662.75" y="1320" />
            </Array>
          </mxGeometry>
        </mxCell>
        <mxCell id="HXH-O_uExGK2S-_WwO7n-587" value="llamado al servicio:&lt;br&gt;login" style="rounded=0;whiteSpace=wrap;html=1;fontSize=11;" vertex="1" parent="WIyWlLk6GJQsqaUBKTNV-1">
          <mxGeometry x="608.75" y="1260" width="115" height="30" as="geometry" />
        </mxCell>
        <mxCell id="HXH-O_uExGK2S-_WwO7n-650" style="edgeStyle=orthogonalEdgeStyle;rounded=0;orthogonalLoop=1;jettySize=auto;html=1;entryX=0.5;entryY=0;entryDx=0;entryDy=0;entryPerimeter=0;" edge="1" parent="WIyWlLk6GJQsqaUBKTNV-1" source="HXH-O_uExGK2S-_WwO7n-588" target="HXH-O_uExGK2S-_WwO7n-648">
          <mxGeometry relative="1" as="geometry">
            <mxPoint x="405.75" y="1320" as="targetPoint" />
          </mxGeometry>
        </mxCell>
        <mxCell id="HXH-O_uExGK2S-_WwO7n-588" value="Llamado al servicio:&lt;br&gt;deleteUserByMail" style="rounded=0;whiteSpace=wrap;html=1;fontSize=11;" vertex="1" parent="WIyWlLk6GJQsqaUBKTNV-1">
          <mxGeometry x="345.75" y="1260" width="120" height="30" as="geometry" />
        </mxCell>
        <mxCell id="HXH-O_uExGK2S-_WwO7n-698" style="edgeStyle=orthogonalEdgeStyle;rounded=0;orthogonalLoop=1;jettySize=auto;html=1;entryX=0.5;entryY=0;entryDx=0;entryDy=0;entryPerimeter=0;exitX=0.512;exitY=1.016;exitDx=0;exitDy=0;exitPerimeter=0;" edge="1" parent="WIyWlLk6GJQsqaUBKTNV-1" source="HXH-O_uExGK2S-_WwO7n-589" target="HXH-O_uExGK2S-_WwO7n-700">
          <mxGeometry relative="1" as="geometry">
            <mxPoint x="793.75" y="1520" as="targetPoint" />
          </mxGeometry>
        </mxCell>
        <mxCell id="HXH-O_uExGK2S-_WwO7n-589" value="llamado al servicio:&lt;br&gt;logout" style="rounded=0;whiteSpace=wrap;html=1;fontSize=11;" vertex="1" parent="WIyWlLk6GJQsqaUBKTNV-1">
          <mxGeometry x="733.75" y="1260" width="120" height="30" as="geometry" />
        </mxCell>
        <mxCell id="HXH-O_uExGK2S-_WwO7n-722" style="edgeStyle=orthogonalEdgeStyle;rounded=0;orthogonalLoop=1;jettySize=auto;html=1;entryX=0.5;entryY=0;entryDx=0;entryDy=0;entryPerimeter=0;" edge="1" parent="WIyWlLk6GJQsqaUBKTNV-1" source="HXH-O_uExGK2S-_WwO7n-590" target="HXH-O_uExGK2S-_WwO7n-711">
          <mxGeometry relative="1" as="geometry">
            <Array as="points">
              <mxPoint x="928.75" y="1310" />
              <mxPoint x="927.75" y="1310" />
            </Array>
          </mxGeometry>
        </mxCell>
        <mxCell id="HXH-O_uExGK2S-_WwO7n-590" value="llamado al servicio:&lt;br&gt;validateToken" style="rounded=0;whiteSpace=wrap;html=1;fontSize=11;" vertex="1" parent="WIyWlLk6GJQsqaUBKTNV-1">
          <mxGeometry x="863.75" y="1260" width="120" height="30" as="geometry" />
        </mxCell>
        <mxCell id="HXH-O_uExGK2S-_WwO7n-633" style="edgeStyle=orthogonalEdgeStyle;rounded=0;orthogonalLoop=1;jettySize=auto;html=1;" edge="1" parent="WIyWlLk6GJQsqaUBKTNV-1" source="HXH-O_uExGK2S-_WwO7n-591" target="HXH-O_uExGK2S-_WwO7n-632">
          <mxGeometry relative="1" as="geometry" />
        </mxCell>
        <mxCell id="HXH-O_uExGK2S-_WwO7n-591" value="llamado al servicio:&lt;br&gt;createUser" style="rounded=0;whiteSpace=wrap;html=1;fontSize=11;" vertex="1" parent="WIyWlLk6GJQsqaUBKTNV-1">
          <mxGeometry x="-306.25" y="1260" width="120" height="30" as="geometry" />
        </mxCell>
        <mxCell id="HXH-O_uExGK2S-_WwO7n-679" style="edgeStyle=orthogonalEdgeStyle;rounded=0;orthogonalLoop=1;jettySize=auto;html=1;entryX=0.5;entryY=0;entryDx=0;entryDy=0;entryPerimeter=0;" edge="1" parent="WIyWlLk6GJQsqaUBKTNV-1" source="HXH-O_uExGK2S-_WwO7n-608" target="HXH-O_uExGK2S-_WwO7n-675">
          <mxGeometry relative="1" as="geometry">
            <Array as="points">
              <mxPoint x="538.75" y="1310" />
              <mxPoint x="538.75" y="1310" />
            </Array>
          </mxGeometry>
        </mxCell>
        <mxCell id="HXH-O_uExGK2S-_WwO7n-608" value="llamado al servicio:&lt;br&gt;deleteUserById" style="rounded=0;whiteSpace=wrap;html=1;fontSize=11;" vertex="1" parent="WIyWlLk6GJQsqaUBKTNV-1">
          <mxGeometry x="478.75" y="1260" width="120" height="30" as="geometry" />
        </mxCell>
        <mxCell id="HXH-O_uExGK2S-_WwO7n-621" value="Llamado&lt;br style=&quot;border-color: var(--border-color);&quot;&gt;Controller" style="rounded=1;whiteSpace=wrap;html=1;absoluteArcSize=1;arcSize=14;strokeWidth=2;" vertex="1" parent="WIyWlLk6GJQsqaUBKTNV-1">
          <mxGeometry x="288.75" y="1040" width="100" height="50" as="geometry" />
        </mxCell>
        <mxCell id="HXH-O_uExGK2S-_WwO7n-634" value="si" style="edgeStyle=orthogonalEdgeStyle;rounded=0;orthogonalLoop=1;jettySize=auto;html=1;fontSize=9;" edge="1" parent="WIyWlLk6GJQsqaUBKTNV-1" source="HXH-O_uExGK2S-_WwO7n-632" target="HXH-O_uExGK2S-_WwO7n-635">
          <mxGeometry x="-0.7088" relative="1" as="geometry">
            <mxPoint x="-256.25" y="1294.1200000000001" as="targetPoint" />
            <mxPoint as="offset" />
          </mxGeometry>
        </mxCell>
        <mxCell id="HXH-O_uExGK2S-_WwO7n-640" value="No" style="edgeStyle=orthogonalEdgeStyle;rounded=0;orthogonalLoop=1;jettySize=auto;html=1;" edge="1" parent="WIyWlLk6GJQsqaUBKTNV-1" source="HXH-O_uExGK2S-_WwO7n-632" target="HXH-O_uExGK2S-_WwO7n-639">
          <mxGeometry relative="1" as="geometry" />
        </mxCell>
        <mxCell id="HXH-O_uExGK2S-_WwO7n-632" value="&lt;font style=&quot;font-size: 9px;&quot;&gt;Existe usuario&lt;/font&gt;" style="strokeWidth=2;html=1;shape=mxgraph.flowchart.decision;whiteSpace=wrap;fontSize=9;" vertex="1" parent="WIyWlLk6GJQsqaUBKTNV-1">
          <mxGeometry x="-281.25" y="1351.6200000000001" width="70" height="75" as="geometry" />
        </mxCell>
        <mxCell id="HXH-O_uExGK2S-_WwO7n-635" value="&lt;font style=&quot;font-size: 9px;&quot;&gt;Mensaje&lt;br&gt;de error&lt;/font&gt;" style="strokeWidth=2;html=1;shape=mxgraph.flowchart.start_2;whiteSpace=wrap;fontSize=9;" vertex="1" parent="WIyWlLk6GJQsqaUBKTNV-1">
          <mxGeometry x="-271.25" y="1451.75" width="50" height="29" as="geometry" />
        </mxCell>
        <mxCell id="HXH-O_uExGK2S-_WwO7n-646" value="si" style="edgeStyle=orthogonalEdgeStyle;rounded=0;orthogonalLoop=1;jettySize=auto;html=1;" edge="1" parent="WIyWlLk6GJQsqaUBKTNV-1" source="HXH-O_uExGK2S-_WwO7n-639" target="HXH-O_uExGK2S-_WwO7n-645">
          <mxGeometry x="-0.6592" relative="1" as="geometry">
            <mxPoint as="offset" />
          </mxGeometry>
        </mxCell>
        <mxCell id="HXH-O_uExGK2S-_WwO7n-639" value="Formato Valido:&lt;br&gt;Email&lt;br&gt;Password" style="strokeWidth=2;html=1;shape=mxgraph.flowchart.decision;whiteSpace=wrap;fontSize=9;" vertex="1" parent="WIyWlLk6GJQsqaUBKTNV-1">
          <mxGeometry x="-411.25" y="1342.8700000000001" width="90" height="92.5" as="geometry" />
        </mxCell>
        <mxCell id="HXH-O_uExGK2S-_WwO7n-641" value="no" style="edgeStyle=orthogonalEdgeStyle;rounded=0;orthogonalLoop=1;jettySize=auto;html=1;fontSize=9;" edge="1" parent="WIyWlLk6GJQsqaUBKTNV-1" target="HXH-O_uExGK2S-_WwO7n-642">
          <mxGeometry x="0.6343" y="-5" relative="1" as="geometry">
            <mxPoint x="-376.25" y="1284.8700000000001" as="targetPoint" />
            <mxPoint x="-366.25" y="1342.8700000000001" as="sourcePoint" />
            <mxPoint as="offset" />
          </mxGeometry>
        </mxCell>
        <mxCell id="HXH-O_uExGK2S-_WwO7n-642" value="&lt;font style=&quot;font-size: 9px;&quot;&gt;Mensaje&lt;br&gt;de error&lt;/font&gt;" style="strokeWidth=2;html=1;shape=mxgraph.flowchart.start_2;whiteSpace=wrap;fontSize=9;" vertex="1" parent="WIyWlLk6GJQsqaUBKTNV-1">
          <mxGeometry x="-391.25" y="1290.0000000000002" width="50" height="29" as="geometry" />
        </mxCell>
        <mxCell id="HXH-O_uExGK2S-_WwO7n-645" value="Crea usuario" style="ellipse;whiteSpace=wrap;html=1;fontSize=9;strokeWidth=2;" vertex="1" parent="WIyWlLk6GJQsqaUBKTNV-1">
          <mxGeometry x="-398.75" y="1464.1200000000001" width="65" height="30" as="geometry" />
        </mxCell>
        <mxCell id="HXH-O_uExGK2S-_WwO7n-654" value="no" style="edgeStyle=orthogonalEdgeStyle;rounded=0;orthogonalLoop=1;jettySize=auto;html=1;fontSize=9;" edge="1" parent="WIyWlLk6GJQsqaUBKTNV-1" source="HXH-O_uExGK2S-_WwO7n-647" target="HXH-O_uExGK2S-_WwO7n-653">
          <mxGeometry relative="1" as="geometry" />
        </mxCell>
        <mxCell id="HXH-O_uExGK2S-_WwO7n-660" value="si" style="edgeStyle=orthogonalEdgeStyle;rounded=0;orthogonalLoop=1;jettySize=auto;html=1;entryX=0.5;entryY=0;entryDx=0;entryDy=0;entryPerimeter=0;fontSize=9;" edge="1" parent="WIyWlLk6GJQsqaUBKTNV-1" source="HXH-O_uExGK2S-_WwO7n-647" target="HXH-O_uExGK2S-_WwO7n-658">
          <mxGeometry x="-0.7146" y="5" relative="1" as="geometry">
            <mxPoint as="offset" />
          </mxGeometry>
        </mxCell>
        <mxCell id="HXH-O_uExGK2S-_WwO7n-647" value="&lt;font style=&quot;font-size: 9px;&quot;&gt;Existe&lt;br style=&quot;font-size: 9px;&quot;&gt;usuario&lt;/font&gt;" style="strokeWidth=2;html=1;shape=mxgraph.flowchart.decision;whiteSpace=wrap;fontSize=9;" vertex="1" parent="WIyWlLk6GJQsqaUBKTNV-1">
          <mxGeometry x="248.75" y="1312.5" width="50" height="48.75" as="geometry" />
        </mxCell>
        <mxCell id="HXH-O_uExGK2S-_WwO7n-656" value="no" style="edgeStyle=orthogonalEdgeStyle;rounded=0;orthogonalLoop=1;jettySize=auto;html=1;fontSize=9;" edge="1" parent="WIyWlLk6GJQsqaUBKTNV-1" source="HXH-O_uExGK2S-_WwO7n-648" target="HXH-O_uExGK2S-_WwO7n-655">
          <mxGeometry relative="1" as="geometry" />
        </mxCell>
        <mxCell id="HXH-O_uExGK2S-_WwO7n-648" value="&lt;font style=&quot;font-size: 9px;&quot;&gt;Existe&lt;br style=&quot;font-size: 9px;&quot;&gt;usuario&lt;/font&gt;" style="strokeWidth=2;html=1;shape=mxgraph.flowchart.decision;whiteSpace=wrap;fontSize=9;" vertex="1" parent="WIyWlLk6GJQsqaUBKTNV-1">
          <mxGeometry x="381.75" y="1312.5" width="48" height="48.75" as="geometry" />
        </mxCell>
        <mxCell id="HXH-O_uExGK2S-_WwO7n-653" value="&lt;font style=&quot;font-size: 9px;&quot;&gt;Mensaje&lt;br style=&quot;font-size: 9px;&quot;&gt;de error&lt;/font&gt;" style="strokeWidth=2;html=1;shape=mxgraph.flowchart.start_2;whiteSpace=wrap;fontSize=9;" vertex="1" parent="WIyWlLk6GJQsqaUBKTNV-1">
          <mxGeometry x="178.75" y="1322.7500000000002" width="50" height="28.25" as="geometry" />
        </mxCell>
        <mxCell id="HXH-O_uExGK2S-_WwO7n-655" value="&lt;font style=&quot;font-size: 9px;&quot;&gt;Mensaje&lt;br style=&quot;font-size: 9px;&quot;&gt;de error&lt;/font&gt;" style="strokeWidth=2;html=1;shape=mxgraph.flowchart.start_2;whiteSpace=wrap;fontSize=9;" vertex="1" parent="WIyWlLk6GJQsqaUBKTNV-1">
          <mxGeometry x="458.75" y="1322.75" width="50" height="28.25" as="geometry" />
        </mxCell>
        <mxCell id="HXH-O_uExGK2S-_WwO7n-658" value="Actualiza&lt;br style=&quot;font-size: 9px;&quot;&gt;usuario" style="strokeWidth=2;html=1;shape=mxgraph.flowchart.start_2;whiteSpace=wrap;fontSize=9;" vertex="1" parent="WIyWlLk6GJQsqaUBKTNV-1">
          <mxGeometry x="248.75" y="1380" width="50" height="28.25" as="geometry" />
        </mxCell>
        <mxCell id="HXH-O_uExGK2S-_WwO7n-661" value="si" style="edgeStyle=orthogonalEdgeStyle;rounded=0;orthogonalLoop=1;jettySize=auto;html=1;entryX=0.5;entryY=0;entryDx=0;entryDy=0;entryPerimeter=0;fontSize=9;" edge="1" parent="WIyWlLk6GJQsqaUBKTNV-1" target="HXH-O_uExGK2S-_WwO7n-662">
          <mxGeometry x="-0.0526" y="3" relative="1" as="geometry">
            <mxPoint x="405.75" y="1361" as="sourcePoint" />
            <mxPoint as="offset" />
          </mxGeometry>
        </mxCell>
        <mxCell id="HXH-O_uExGK2S-_WwO7n-662" value="Elimina&lt;br style=&quot;font-size: 9px;&quot;&gt;usuario&lt;br&gt;por email" style="strokeWidth=2;html=1;shape=mxgraph.flowchart.start_2;whiteSpace=wrap;fontSize=9;" vertex="1" parent="WIyWlLk6GJQsqaUBKTNV-1">
          <mxGeometry x="383.75" y="1378.25" width="46" height="51.75" as="geometry" />
        </mxCell>
        <mxCell id="HXH-O_uExGK2S-_WwO7n-665" style="edgeStyle=orthogonalEdgeStyle;rounded=0;orthogonalLoop=1;jettySize=auto;html=1;" edge="1" parent="WIyWlLk6GJQsqaUBKTNV-1" source="HXH-O_uExGK2S-_WwO7n-664">
          <mxGeometry relative="1" as="geometry">
            <mxPoint x="143.75" y="1430" as="targetPoint" />
          </mxGeometry>
        </mxCell>
        <mxCell id="HXH-O_uExGK2S-_WwO7n-664" value="Buscar y generar lista de todos los usuarios" style="whiteSpace=wrap;html=1;aspect=fixed;fontSize=9;" vertex="1" parent="WIyWlLk6GJQsqaUBKTNV-1">
          <mxGeometry x="116.25" y="1353.25" width="55" height="55" as="geometry" />
        </mxCell>
        <mxCell id="HXH-O_uExGK2S-_WwO7n-667" value="Retorna&lt;br&gt;lista de usuarios" style="strokeWidth=2;html=1;shape=mxgraph.flowchart.start_2;whiteSpace=wrap;fontSize=9;" vertex="1" parent="WIyWlLk6GJQsqaUBKTNV-1">
          <mxGeometry x="118.75" y="1430" width="50" height="51.75" as="geometry" />
        </mxCell>
        <mxCell id="HXH-O_uExGK2S-_WwO7n-674" value="no" style="edgeStyle=orthogonalEdgeStyle;rounded=0;orthogonalLoop=1;jettySize=auto;html=1;fontSize=9;" edge="1" parent="WIyWlLk6GJQsqaUBKTNV-1" source="HXH-O_uExGK2S-_WwO7n-675" target="HXH-O_uExGK2S-_WwO7n-676">
          <mxGeometry relative="1" as="geometry" />
        </mxCell>
        <mxCell id="HXH-O_uExGK2S-_WwO7n-675" value="&lt;font style=&quot;font-size: 9px;&quot;&gt;Existe&lt;br style=&quot;font-size: 9px;&quot;&gt;usuario&lt;/font&gt;" style="strokeWidth=2;html=1;shape=mxgraph.flowchart.decision;whiteSpace=wrap;fontSize=9;" vertex="1" parent="WIyWlLk6GJQsqaUBKTNV-1">
          <mxGeometry x="514.75" y="1329.5" width="48" height="48.75" as="geometry" />
        </mxCell>
        <mxCell id="HXH-O_uExGK2S-_WwO7n-676" value="&lt;font style=&quot;font-size: 9px;&quot;&gt;Mensaje&lt;br style=&quot;font-size: 9px;&quot;&gt;de error&lt;/font&gt;" style="strokeWidth=2;html=1;shape=mxgraph.flowchart.start_2;whiteSpace=wrap;fontSize=9;" vertex="1" parent="WIyWlLk6GJQsqaUBKTNV-1">
          <mxGeometry x="585.75" y="1339.75" width="50" height="28.25" as="geometry" />
        </mxCell>
        <mxCell id="HXH-O_uExGK2S-_WwO7n-677" value="si" style="edgeStyle=orthogonalEdgeStyle;rounded=0;orthogonalLoop=1;jettySize=auto;html=1;entryX=0.5;entryY=0;entryDx=0;entryDy=0;entryPerimeter=0;fontSize=9;" edge="1" parent="WIyWlLk6GJQsqaUBKTNV-1" target="HXH-O_uExGK2S-_WwO7n-678">
          <mxGeometry x="-0.0526" y="3" relative="1" as="geometry">
            <mxPoint x="538.75" y="1380" as="sourcePoint" />
            <mxPoint as="offset" />
          </mxGeometry>
        </mxCell>
        <mxCell id="HXH-O_uExGK2S-_WwO7n-678" value="Elimina&lt;br style=&quot;font-size: 9px;&quot;&gt;usuario&lt;br&gt;por Id" style="strokeWidth=2;html=1;shape=mxgraph.flowchart.start_2;whiteSpace=wrap;fontSize=9;" vertex="1" parent="WIyWlLk6GJQsqaUBKTNV-1">
          <mxGeometry x="516.75" y="1400" width="46" height="51.75" as="geometry" />
        </mxCell>
        <mxCell id="HXH-O_uExGK2S-_WwO7n-680" value="no" style="edgeStyle=orthogonalEdgeStyle;rounded=0;orthogonalLoop=1;jettySize=auto;html=1;fontSize=9;" edge="1" parent="WIyWlLk6GJQsqaUBKTNV-1" source="HXH-O_uExGK2S-_WwO7n-681" target="HXH-O_uExGK2S-_WwO7n-682">
          <mxGeometry relative="1" as="geometry" />
        </mxCell>
        <mxCell id="HXH-O_uExGK2S-_WwO7n-681" value="&lt;font style=&quot;font-size: 9px;&quot;&gt;Existe&lt;br style=&quot;font-size: 9px;&quot;&gt;usuario&lt;/font&gt;" style="strokeWidth=2;html=1;shape=mxgraph.flowchart.decision;whiteSpace=wrap;fontSize=9;" vertex="1" parent="WIyWlLk6GJQsqaUBKTNV-1">
          <mxGeometry x="638.75" y="1380" width="48" height="48.75" as="geometry" />
        </mxCell>
        <mxCell id="HXH-O_uExGK2S-_WwO7n-682" value="&lt;font style=&quot;font-size: 9px;&quot;&gt;Mensaje&lt;br style=&quot;font-size: 9px;&quot;&gt;de error&lt;/font&gt;" style="strokeWidth=2;html=1;shape=mxgraph.flowchart.start_2;whiteSpace=wrap;fontSize=9;" vertex="1" parent="WIyWlLk6GJQsqaUBKTNV-1">
          <mxGeometry x="715.75" y="1390.25" width="50" height="28.25" as="geometry" />
        </mxCell>
        <mxCell id="HXH-O_uExGK2S-_WwO7n-683" value="si" style="edgeStyle=orthogonalEdgeStyle;rounded=0;orthogonalLoop=1;jettySize=auto;html=1;entryX=0.5;entryY=-0.026;entryDx=0;entryDy=0;entryPerimeter=0;fontSize=9;" edge="1" parent="WIyWlLk6GJQsqaUBKTNV-1" target="HXH-O_uExGK2S-_WwO7n-687">
          <mxGeometry x="-0.0526" y="3" relative="1" as="geometry">
            <mxPoint x="662.75" y="1430.5" as="sourcePoint" />
            <mxPoint as="offset" />
            <mxPoint x="663.7499999999998" y="1451.75" as="targetPoint" />
          </mxGeometry>
        </mxCell>
        <mxCell id="HXH-O_uExGK2S-_WwO7n-694" value="Si" style="edgeStyle=orthogonalEdgeStyle;rounded=0;orthogonalLoop=1;jettySize=auto;html=1;entryX=0.5;entryY=0;entryDx=0;entryDy=0;fontSize=9;" edge="1" parent="WIyWlLk6GJQsqaUBKTNV-1" source="HXH-O_uExGK2S-_WwO7n-687" target="HXH-O_uExGK2S-_WwO7n-695">
          <mxGeometry x="0.0034" y="-6" relative="1" as="geometry">
            <mxPoint x="655.25" y="1520" as="targetPoint" />
            <mxPoint as="offset" />
          </mxGeometry>
        </mxCell>
        <mxCell id="HXH-O_uExGK2S-_WwO7n-687" value="Password&lt;br&gt;valido" style="strokeWidth=2;html=1;shape=mxgraph.flowchart.decision;whiteSpace=wrap;fontSize=9;" vertex="1" parent="WIyWlLk6GJQsqaUBKTNV-1">
          <mxGeometry x="626.75" y="1452.25" width="72" height="47.75" as="geometry" />
        </mxCell>
        <mxCell id="HXH-O_uExGK2S-_WwO7n-689" value="no" style="edgeStyle=orthogonalEdgeStyle;rounded=0;orthogonalLoop=1;jettySize=auto;html=1;fontSize=9;" edge="1" parent="WIyWlLk6GJQsqaUBKTNV-1" target="HXH-O_uExGK2S-_WwO7n-690">
          <mxGeometry relative="1" as="geometry">
            <mxPoint x="696.75" y="1475.75" as="sourcePoint" />
          </mxGeometry>
        </mxCell>
        <mxCell id="HXH-O_uExGK2S-_WwO7n-690" value="&lt;font style=&quot;font-size: 9px;&quot;&gt;Mensaje&lt;br style=&quot;font-size: 9px;&quot;&gt;de error&lt;/font&gt;" style="strokeWidth=2;html=1;shape=mxgraph.flowchart.start_2;whiteSpace=wrap;fontSize=9;" vertex="1" parent="WIyWlLk6GJQsqaUBKTNV-1">
          <mxGeometry x="725.75" y="1462" width="50" height="28.25" as="geometry" />
        </mxCell>
        <mxCell id="HXH-O_uExGK2S-_WwO7n-697" style="edgeStyle=orthogonalEdgeStyle;rounded=0;orthogonalLoop=1;jettySize=auto;html=1;entryX=0.5;entryY=0;entryDx=0;entryDy=0;entryPerimeter=0;" edge="1" parent="WIyWlLk6GJQsqaUBKTNV-1" source="HXH-O_uExGK2S-_WwO7n-695" target="HXH-O_uExGK2S-_WwO7n-696">
          <mxGeometry relative="1" as="geometry" />
        </mxCell>
        <mxCell id="HXH-O_uExGK2S-_WwO7n-695" value="&lt;font style=&quot;font-size: 9px;&quot;&gt;Actualiza token&lt;br&gt;Actualiza LastLogin&lt;/font&gt;" style="rounded=0;whiteSpace=wrap;html=1;" vertex="1" parent="WIyWlLk6GJQsqaUBKTNV-1">
          <mxGeometry x="616.75" y="1510" width="92" height="30" as="geometry" />
        </mxCell>
        <mxCell id="HXH-O_uExGK2S-_WwO7n-696" value="Inicia sesión" style="strokeWidth=2;html=1;shape=mxgraph.flowchart.start_2;whiteSpace=wrap;fontSize=9;" vertex="1" parent="WIyWlLk6GJQsqaUBKTNV-1">
          <mxGeometry x="636.75" y="1548.25" width="52" height="31.75" as="geometry" />
        </mxCell>
        <mxCell id="HXH-O_uExGK2S-_WwO7n-699" value="no" style="edgeStyle=orthogonalEdgeStyle;rounded=0;orthogonalLoop=1;jettySize=auto;html=1;fontSize=9;" edge="1" parent="WIyWlLk6GJQsqaUBKTNV-1" source="HXH-O_uExGK2S-_WwO7n-700" target="HXH-O_uExGK2S-_WwO7n-701">
          <mxGeometry relative="1" as="geometry" />
        </mxCell>
        <mxCell id="HXH-O_uExGK2S-_WwO7n-700" value="&lt;font style=&quot;font-size: 9px;&quot;&gt;Existe&lt;br style=&quot;font-size: 9px;&quot;&gt;usuario&lt;/font&gt;" style="strokeWidth=2;html=1;shape=mxgraph.flowchart.decision;whiteSpace=wrap;fontSize=9;" vertex="1" parent="WIyWlLk6GJQsqaUBKTNV-1">
          <mxGeometry x="770.75" y="1490.25" width="48" height="48.75" as="geometry" />
        </mxCell>
        <mxCell id="HXH-O_uExGK2S-_WwO7n-701" value="&lt;font style=&quot;font-size: 9px;&quot;&gt;Mensaje&lt;br style=&quot;font-size: 9px;&quot;&gt;de error&lt;/font&gt;" style="strokeWidth=2;html=1;shape=mxgraph.flowchart.start_2;whiteSpace=wrap;fontSize=9;" vertex="1" parent="WIyWlLk6GJQsqaUBKTNV-1">
          <mxGeometry x="847.75" y="1500.5" width="50" height="28.25" as="geometry" />
        </mxCell>
        <mxCell id="HXH-O_uExGK2S-_WwO7n-702" value="si" style="edgeStyle=orthogonalEdgeStyle;rounded=0;orthogonalLoop=1;jettySize=auto;html=1;entryX=0.5;entryY=-0.026;entryDx=0;entryDy=0;entryPerimeter=0;fontSize=9;" edge="1" parent="WIyWlLk6GJQsqaUBKTNV-1" target="HXH-O_uExGK2S-_WwO7n-704">
          <mxGeometry x="-0.0526" y="3" relative="1" as="geometry">
            <mxPoint x="794.75" y="1540.75" as="sourcePoint" />
            <mxPoint as="offset" />
            <mxPoint x="795.7499999999998" y="1562" as="targetPoint" />
          </mxGeometry>
        </mxCell>
        <mxCell id="HXH-O_uExGK2S-_WwO7n-703" value="Si" style="edgeStyle=orthogonalEdgeStyle;rounded=0;orthogonalLoop=1;jettySize=auto;html=1;entryX=0.5;entryY=0;entryDx=0;entryDy=0;fontSize=9;" edge="1" parent="WIyWlLk6GJQsqaUBKTNV-1" source="HXH-O_uExGK2S-_WwO7n-704" target="HXH-O_uExGK2S-_WwO7n-708">
          <mxGeometry x="0.0034" y="-6" relative="1" as="geometry">
            <mxPoint x="787.25" y="1630.25" as="targetPoint" />
            <mxPoint as="offset" />
          </mxGeometry>
        </mxCell>
        <mxCell id="HXH-O_uExGK2S-_WwO7n-704" value="Token&lt;br&gt;valido" style="strokeWidth=2;html=1;shape=mxgraph.flowchart.decision;whiteSpace=wrap;fontSize=9;" vertex="1" parent="WIyWlLk6GJQsqaUBKTNV-1">
          <mxGeometry x="758.75" y="1562.5" width="72" height="47.75" as="geometry" />
        </mxCell>
        <mxCell id="HXH-O_uExGK2S-_WwO7n-705" value="no" style="edgeStyle=orthogonalEdgeStyle;rounded=0;orthogonalLoop=1;jettySize=auto;html=1;fontSize=9;" edge="1" parent="WIyWlLk6GJQsqaUBKTNV-1" target="HXH-O_uExGK2S-_WwO7n-706">
          <mxGeometry relative="1" as="geometry">
            <mxPoint x="828.75" y="1586" as="sourcePoint" />
          </mxGeometry>
        </mxCell>
        <mxCell id="HXH-O_uExGK2S-_WwO7n-706" value="&lt;font style=&quot;font-size: 9px;&quot;&gt;Mensaje&lt;br style=&quot;font-size: 9px;&quot;&gt;de error&lt;/font&gt;" style="strokeWidth=2;html=1;shape=mxgraph.flowchart.start_2;whiteSpace=wrap;fontSize=9;" vertex="1" parent="WIyWlLk6GJQsqaUBKTNV-1">
          <mxGeometry x="857.75" y="1572.25" width="50" height="28.25" as="geometry" />
        </mxCell>
        <mxCell id="HXH-O_uExGK2S-_WwO7n-707" style="edgeStyle=orthogonalEdgeStyle;rounded=0;orthogonalLoop=1;jettySize=auto;html=1;entryX=0.5;entryY=0;entryDx=0;entryDy=0;entryPerimeter=0;" edge="1" parent="WIyWlLk6GJQsqaUBKTNV-1" source="HXH-O_uExGK2S-_WwO7n-708" target="HXH-O_uExGK2S-_WwO7n-709">
          <mxGeometry relative="1" as="geometry" />
        </mxCell>
        <mxCell id="HXH-O_uExGK2S-_WwO7n-708" value="&lt;font size=&quot;1&quot;&gt;Eliminar token&lt;/font&gt;" style="rounded=0;whiteSpace=wrap;html=1;" vertex="1" parent="WIyWlLk6GJQsqaUBKTNV-1">
          <mxGeometry x="748.75" y="1620.25" width="92" height="19.75" as="geometry" />
        </mxCell>
        <mxCell id="HXH-O_uExGK2S-_WwO7n-709" value="Finaliza&lt;br&gt;sesión" style="strokeWidth=2;html=1;shape=mxgraph.flowchart.start_2;whiteSpace=wrap;fontSize=9;" vertex="1" parent="WIyWlLk6GJQsqaUBKTNV-1">
          <mxGeometry x="768.75" y="1650" width="52" height="31.75" as="geometry" />
        </mxCell>
        <mxCell id="HXH-O_uExGK2S-_WwO7n-710" value="no" style="edgeStyle=orthogonalEdgeStyle;rounded=0;orthogonalLoop=1;jettySize=auto;html=1;fontSize=9;" edge="1" parent="WIyWlLk6GJQsqaUBKTNV-1" source="HXH-O_uExGK2S-_WwO7n-711" target="HXH-O_uExGK2S-_WwO7n-712">
          <mxGeometry relative="1" as="geometry" />
        </mxCell>
        <mxCell id="HXH-O_uExGK2S-_WwO7n-711" value="&lt;font style=&quot;font-size: 9px;&quot;&gt;Existe&lt;br style=&quot;font-size: 9px;&quot;&gt;usuario&lt;/font&gt;" style="strokeWidth=2;html=1;shape=mxgraph.flowchart.decision;whiteSpace=wrap;fontSize=9;" vertex="1" parent="WIyWlLk6GJQsqaUBKTNV-1">
          <mxGeometry x="904.25" y="1317.5600000000002" width="48" height="48.75" as="geometry" />
        </mxCell>
        <mxCell id="HXH-O_uExGK2S-_WwO7n-712" value="&lt;font style=&quot;font-size: 9px;&quot;&gt;Mensaje&lt;br style=&quot;font-size: 9px;&quot;&gt;de error&lt;/font&gt;" style="strokeWidth=2;html=1;shape=mxgraph.flowchart.start_2;whiteSpace=wrap;fontSize=9;" vertex="1" parent="WIyWlLk6GJQsqaUBKTNV-1">
          <mxGeometry x="981.25" y="1327.8100000000002" width="50" height="28.25" as="geometry" />
        </mxCell>
        <mxCell id="HXH-O_uExGK2S-_WwO7n-713" value="si" style="edgeStyle=orthogonalEdgeStyle;rounded=0;orthogonalLoop=1;jettySize=auto;html=1;entryX=0.5;entryY=-0.026;entryDx=0;entryDy=0;entryPerimeter=0;fontSize=9;" edge="1" parent="WIyWlLk6GJQsqaUBKTNV-1" target="HXH-O_uExGK2S-_WwO7n-715">
          <mxGeometry x="-0.0526" y="3" relative="1" as="geometry">
            <mxPoint x="928.25" y="1368.0600000000002" as="sourcePoint" />
            <mxPoint as="offset" />
            <mxPoint x="929.2499999999998" y="1389.3100000000002" as="targetPoint" />
          </mxGeometry>
        </mxCell>
        <mxCell id="HXH-O_uExGK2S-_WwO7n-724" style="edgeStyle=orthogonalEdgeStyle;rounded=0;orthogonalLoop=1;jettySize=auto;html=1;" edge="1" parent="WIyWlLk6GJQsqaUBKTNV-1" source="HXH-O_uExGK2S-_WwO7n-715">
          <mxGeometry relative="1" as="geometry">
            <mxPoint x="928.25" y="1460" as="targetPoint" />
          </mxGeometry>
        </mxCell>
        <mxCell id="HXH-O_uExGK2S-_WwO7n-715" value="Token&lt;br&gt;valido" style="strokeWidth=2;html=1;shape=mxgraph.flowchart.decision;whiteSpace=wrap;fontSize=9;" vertex="1" parent="WIyWlLk6GJQsqaUBKTNV-1">
          <mxGeometry x="892.25" y="1389.8100000000002" width="72" height="47.75" as="geometry" />
        </mxCell>
        <mxCell id="HXH-O_uExGK2S-_WwO7n-716" value="no" style="edgeStyle=orthogonalEdgeStyle;rounded=0;orthogonalLoop=1;jettySize=auto;html=1;fontSize=9;" edge="1" parent="WIyWlLk6GJQsqaUBKTNV-1" target="HXH-O_uExGK2S-_WwO7n-717">
          <mxGeometry relative="1" as="geometry">
            <mxPoint x="962.25" y="1413.3100000000002" as="sourcePoint" />
          </mxGeometry>
        </mxCell>
        <mxCell id="HXH-O_uExGK2S-_WwO7n-717" value="&lt;font style=&quot;font-size: 9px;&quot;&gt;Mensaje&lt;br style=&quot;font-size: 9px;&quot;&gt;de error&lt;/font&gt;" style="strokeWidth=2;html=1;shape=mxgraph.flowchart.start_2;whiteSpace=wrap;fontSize=9;" vertex="1" parent="WIyWlLk6GJQsqaUBKTNV-1">
          <mxGeometry x="991.25" y="1399.5600000000002" width="50" height="28.25" as="geometry" />
        </mxCell>
        <mxCell id="HXH-O_uExGK2S-_WwO7n-720" value="Token&lt;br&gt;Valido" style="strokeWidth=2;html=1;shape=mxgraph.flowchart.start_2;whiteSpace=wrap;fontSize=9;" vertex="1" parent="WIyWlLk6GJQsqaUBKTNV-1">
          <mxGeometry x="902.25" y="1460.2500000000002" width="52" height="31.75" as="geometry" />
        </mxCell>
        <mxCell id="HXH-O_uExGK2S-_WwO7n-725" value="no" style="edgeStyle=orthogonalEdgeStyle;rounded=0;orthogonalLoop=1;jettySize=auto;html=1;fontSize=9;" edge="1" parent="WIyWlLk6GJQsqaUBKTNV-1" source="HXH-O_uExGK2S-_WwO7n-727" target="HXH-O_uExGK2S-_WwO7n-728">
          <mxGeometry relative="1" as="geometry" />
        </mxCell>
        <mxCell id="HXH-O_uExGK2S-_WwO7n-726" value="si" style="edgeStyle=orthogonalEdgeStyle;rounded=0;orthogonalLoop=1;jettySize=auto;html=1;entryX=0.5;entryY=0;entryDx=0;entryDy=0;entryPerimeter=0;fontSize=9;" edge="1" parent="WIyWlLk6GJQsqaUBKTNV-1" source="HXH-O_uExGK2S-_WwO7n-727" target="HXH-O_uExGK2S-_WwO7n-729">
          <mxGeometry x="-0.7146" y="5" relative="1" as="geometry">
            <mxPoint as="offset" />
          </mxGeometry>
        </mxCell>
        <mxCell id="HXH-O_uExGK2S-_WwO7n-727" value="&lt;font style=&quot;font-size: 9px;&quot;&gt;Existe&lt;br style=&quot;font-size: 9px;&quot;&gt;usuario&lt;/font&gt;" style="strokeWidth=2;html=1;shape=mxgraph.flowchart.decision;whiteSpace=wrap;fontSize=9;" vertex="1" parent="WIyWlLk6GJQsqaUBKTNV-1">
          <mxGeometry x="-11.25" y="1312.5" width="50" height="48.75" as="geometry" />
        </mxCell>
        <mxCell id="HXH-O_uExGK2S-_WwO7n-728" value="&lt;font style=&quot;font-size: 9px;&quot;&gt;Mensaje&lt;br style=&quot;font-size: 9px;&quot;&gt;de error&lt;/font&gt;" style="strokeWidth=2;html=1;shape=mxgraph.flowchart.start_2;whiteSpace=wrap;fontSize=9;" vertex="1" parent="WIyWlLk6GJQsqaUBKTNV-1">
          <mxGeometry x="-81.25" y="1322.7500000000002" width="50" height="28.25" as="geometry" />
        </mxCell>
        <mxCell id="HXH-O_uExGK2S-_WwO7n-729" value="Retorna&lt;br&gt;usuario&lt;br&gt;por Id" style="strokeWidth=2;html=1;shape=mxgraph.flowchart.start_2;whiteSpace=wrap;fontSize=9;" vertex="1" parent="WIyWlLk6GJQsqaUBKTNV-1">
          <mxGeometry x="-11.25" y="1376.06" width="50" height="51.75" as="geometry" />
        </mxCell>
        <mxCell id="HXH-O_uExGK2S-_WwO7n-731" value="no" style="edgeStyle=orthogonalEdgeStyle;rounded=0;orthogonalLoop=1;jettySize=auto;html=1;fontSize=9;" edge="1" parent="WIyWlLk6GJQsqaUBKTNV-1" source="HXH-O_uExGK2S-_WwO7n-733" target="HXH-O_uExGK2S-_WwO7n-734">
          <mxGeometry relative="1" as="geometry" />
        </mxCell>
        <mxCell id="HXH-O_uExGK2S-_WwO7n-732" value="si" style="edgeStyle=orthogonalEdgeStyle;rounded=0;orthogonalLoop=1;jettySize=auto;html=1;entryX=0.5;entryY=0;entryDx=0;entryDy=0;entryPerimeter=0;fontSize=9;" edge="1" parent="WIyWlLk6GJQsqaUBKTNV-1" source="HXH-O_uExGK2S-_WwO7n-733" target="HXH-O_uExGK2S-_WwO7n-736">
          <mxGeometry x="-0.7146" y="5" relative="1" as="geometry">
            <mxPoint as="offset" />
            <mxPoint x="-116.25" y="1401.5000000000005" as="targetPoint" />
          </mxGeometry>
        </mxCell>
        <mxCell id="HXH-O_uExGK2S-_WwO7n-733" value="&lt;font style=&quot;font-size: 9px;&quot;&gt;Existe&lt;br style=&quot;font-size: 9px;&quot;&gt;usuario&lt;/font&gt;" style="strokeWidth=2;html=1;shape=mxgraph.flowchart.decision;whiteSpace=wrap;fontSize=9;" vertex="1" parent="WIyWlLk6GJQsqaUBKTNV-1">
          <mxGeometry x="-141.25" y="1334" width="50" height="48.75" as="geometry" />
        </mxCell>
        <mxCell id="HXH-O_uExGK2S-_WwO7n-734" value="&lt;font style=&quot;font-size: 9px;&quot;&gt;Mensaje&lt;br style=&quot;font-size: 9px;&quot;&gt;de error&lt;/font&gt;" style="strokeWidth=2;html=1;shape=mxgraph.flowchart.start_2;whiteSpace=wrap;fontSize=9;" vertex="1" parent="WIyWlLk6GJQsqaUBKTNV-1">
          <mxGeometry x="-211.25" y="1344.2500000000002" width="50" height="28.25" as="geometry" />
        </mxCell>
        <mxCell id="HXH-O_uExGK2S-_WwO7n-736" value="Retorna&lt;br&gt;usuario&lt;br&gt;por Id" style="strokeWidth=2;html=1;shape=mxgraph.flowchart.start_2;whiteSpace=wrap;fontSize=9;" vertex="1" parent="WIyWlLk6GJQsqaUBKTNV-1">
          <mxGeometry x="-141.25" y="1402.5" width="50" height="51.75" as="geometry" />
        </mxCell>
        <mxCell id="HXH-O_uExGK2S-_WwO7n-755" value="FLUJO DE LLAMADAS" style="text;strokeColor=none;fillColor=none;spacingLeft=4;spacingRight=4;overflow=hidden;rotatable=0;points=[[0,0.5],[1,0.5]];portConstraint=eastwest;fontSize=40;whiteSpace=wrap;html=1;fontStyle=1;align=center;" vertex="1" parent="WIyWlLk6GJQsqaUBKTNV-1">
          <mxGeometry x="110" y="915" width="457.51" height="55" as="geometry" />
        </mxCell>
        <mxCell id="HXH-O_uExGK2S-_WwO7n-757" value="ESQUEMA DE APLICACIÓN" style="text;strokeColor=none;fillColor=none;spacingLeft=4;spacingRight=4;overflow=hidden;rotatable=0;points=[[0,0.5],[1,0.5]];portConstraint=eastwest;fontSize=40;whiteSpace=wrap;html=1;fontStyle=1;align=center;" vertex="1" parent="WIyWlLk6GJQsqaUBKTNV-1">
          <mxGeometry x="75.01" y="-305" width="544.99" height="45" as="geometry" />
        </mxCell>
      </root>
    </mxGraphModel>
  </diagram>
</mxfile>
